<svg width="265" height="54" viewBox="0 0 265 54" fill="none" xmlns="http://www.w3.org/2000/svg">
<path d="M122.353 3.74331H122.838V50.4023H122.353V3.74331Z" fill="white"/>
<path d="M52.8252 36.0308C52.9709 36.1764 52.9709 36.4192 52.8252 36.5649C51.3687 38.07 49.8635 38.7497 47.8243 38.7497C44.3285 38.7497 41.561 35.9337 41.561 32.3893C41.561 28.6993 44.28 25.9804 47.9214 25.9804C50.3976 25.9804 51.7085 26.9514 52.7281 27.8739C52.8738 28.0196 52.8738 28.2624 52.7281 28.408L51.4172 29.9132C51.3201 30.0103 51.2716 30.0588 51.1744 30.0588C51.0773 30.0588 50.9802 30.0103 50.8831 29.9617C49.8635 29.0392 48.9896 28.6022 47.8729 28.6022C45.9308 28.6022 44.4256 30.2045 44.4256 32.3408C44.4256 34.5256 45.9308 36.1279 47.8729 36.1279C49.1838 36.1279 50.0092 35.5938 50.9802 34.7199C51.1259 34.5742 51.3687 34.5742 51.5143 34.7199L52.8252 36.0308ZM59.8654 36.0793C61.9046 36.0793 63.4097 34.4771 63.4097 32.3408C63.4097 30.1559 61.856 28.5537 59.8168 28.5537C57.7776 28.5537 56.2725 30.1559 56.2725 32.2922C56.2725 34.4771 57.8262 36.0793 59.8654 36.0793ZM59.8654 25.9318C63.5068 25.9318 66.2743 28.6508 66.2743 32.2922C66.2743 35.8851 63.4583 38.7012 59.8168 38.7012C56.1754 38.7012 53.4079 35.9822 53.4079 32.3408C53.4079 28.7479 56.2239 25.9318 59.8654 25.9318ZM72.8775 31.0299C70.5469 30.4472 70.4013 30.1074 70.4013 29.5247C70.4013 28.9421 70.9839 28.5051 71.9064 28.5051C72.8775 28.5051 73.7999 28.8935 74.8681 29.6218C74.9652 29.6704 75.0623 29.7189 75.1594 29.7189C75.2565 29.7189 75.3536 29.6218 75.4022 29.5733L76.5189 28.0196C76.616 27.8739 76.616 27.6312 76.4218 27.5341C75.1594 26.5145 73.7028 25.9804 71.955 25.9804C69.4302 25.9804 67.6338 27.5826 67.6338 29.7675C67.6338 32.098 69.1389 32.972 71.8093 33.6031C73.9942 34.0887 74.1398 34.5256 74.1398 35.0597C74.1398 35.8851 73.2659 36.1279 72.4405 36.1279C71.1781 36.1279 70.1585 35.6909 69.0418 34.7199C68.9447 34.6713 68.8961 34.6228 68.7505 34.6228C68.6534 34.6228 68.5563 34.6713 68.5077 34.7684L67.2939 36.225C67.1483 36.3706 67.1968 36.6134 67.3425 36.7591C68.799 38.0214 70.5469 38.7012 72.4405 38.7012C75.1594 38.7012 76.9559 37.196 76.9559 34.817C76.8588 32.3408 74.9652 31.5639 72.8775 31.0299ZM87.8316 28.408V26.5145C87.8316 26.3203 87.686 26.1261 87.4432 26.1261H78.024C77.8298 26.1261 77.6356 26.2717 77.6356 26.5145V28.408C77.6356 28.6022 77.7813 28.7964 78.024 28.7964H81.3256V38.1671C81.3256 38.3613 81.4713 38.5555 81.714 38.5555H83.7532C83.9474 38.5555 84.1417 38.4099 84.1417 38.1671V28.7964H87.4432C87.6374 28.7964 87.8316 28.6022 87.8316 28.408ZM93.0753 29.816L91.6187 33.1662H94.4834L93.0753 29.816ZM99.4843 37.9729C99.5328 38.07 99.5328 38.2156 99.4357 38.3127C99.3386 38.4099 99.2415 38.4584 99.1444 38.4584H97.0081C96.8624 38.4584 96.7168 38.3613 96.6682 38.2156L95.6001 35.6424H90.5991L89.4824 38.2156C89.4339 38.3613 89.2882 38.4584 89.1426 38.4584H87.0548C86.9092 38.4584 86.812 38.4099 86.7635 38.3127C86.6664 38.2156 86.6664 38.07 86.7149 37.9729L91.813 26.2717C91.8615 26.126 92.0072 26.0289 92.1528 26.0289H94.0464C94.192 26.0289 94.3377 26.126 94.3862 26.2717L99.4843 37.9729ZM45.4938 47.0522H48.0671C49.3294 47.0522 50.1063 46.4696 50.1063 45.45C50.1063 44.1391 48.9896 43.8477 48.0671 43.8477H45.4938V47.0522ZM53.2137 53.0727C53.3108 53.1698 53.3108 53.3155 53.2137 53.4612C53.1651 53.6068 53.0194 53.6554 52.8738 53.6554H50.4462C50.3005 53.6554 50.2034 53.6068 50.1548 53.5097L47.4359 49.5769H45.4452V53.2669C45.4452 53.4612 45.2996 53.6554 45.0568 53.6554H43.0176C42.8234 53.6554 42.6292 53.5097 42.6292 53.2669V41.6629C42.6292 41.4687 42.7748 41.2745 43.0176 41.2745H48.2127C49.7179 41.2745 50.9802 41.7114 51.8542 42.5368C52.5339 43.2651 52.9223 44.1876 52.9223 45.3043C52.9223 47.0522 51.9998 48.4117 50.3491 49.0429L53.2137 53.0727ZM57.3892 41.2745H55.35C55.1558 41.2745 54.9615 41.4201 54.9615 41.6629V53.2669C54.9615 53.4612 55.1072 53.6554 55.35 53.6554H57.3892C57.5834 53.6554 57.7776 53.5097 57.7776 53.2669V41.6629C57.729 41.4687 57.5834 41.2745 57.3892 41.2745ZM69.6244 49.8197C69.4788 49.6741 69.236 49.6741 69.0904 49.8197C68.1679 50.6937 67.2939 51.2277 65.983 51.2277C64.0409 51.2277 62.5358 49.6255 62.5358 47.4406C62.5358 45.3043 64.0409 43.7021 65.983 43.7021C67.0511 43.7021 67.9736 44.0905 68.9932 45.0616C69.0904 45.1587 69.1875 45.1587 69.2846 45.1587C69.3817 45.1587 69.4788 45.1101 69.5273 45.013L70.8382 43.5079C70.9839 43.3622 70.9353 43.1195 70.8382 42.9738C69.8672 42.0513 68.5077 41.0802 66.0315 41.0802C62.3901 41.0802 59.6712 43.7992 59.6712 47.4892C59.6712 51.0335 62.4386 53.8496 65.9344 53.8496C67.9736 53.8496 69.4302 53.2184 70.9354 51.6647C71.081 51.5191 71.081 51.2763 70.9354 51.1306L69.6244 49.8197ZM77.8298 44.9645L76.3732 48.3146H79.2378L77.8298 44.9645ZM84.2873 53.1213C84.3359 53.2184 84.3359 53.364 84.2388 53.4612C84.1417 53.5583 84.0445 53.6068 83.9474 53.6068H81.8111C81.6655 53.6068 81.5198 53.5097 81.4713 53.364L80.4031 50.7908H75.4022L74.2855 53.364C74.2369 53.5097 74.0913 53.6068 73.9456 53.6068H71.8578C71.7122 53.6068 71.6151 53.5583 71.5665 53.4612C71.4694 53.364 71.4694 53.2184 71.518 53.1213L76.616 41.4201C76.6646 41.2745 76.8102 41.1774 76.9559 41.1774H78.8494C78.9951 41.1774 79.1407 41.2745 79.1893 41.4201L84.2873 53.1213Z" fill="white"/>
<path d="M108.952 17.6779C109.049 17.6779 109.098 17.6779 109.195 17.6294C109.243 17.5808 109.292 17.5323 109.292 17.4837C109.292 17.4351 109.292 17.338 109.195 17.338C109.146 17.2895 109.049 17.2895 108.952 17.2895H108.564V17.6779H108.952ZM109.34 18.4062L108.952 17.8721H108.612V18.4062H108.369V16.9982H109.001C109.098 16.9982 109.146 16.9982 109.243 17.0467C109.34 17.0953 109.389 17.1438 109.438 17.1438C109.486 17.1924 109.486 17.2409 109.535 17.2895C109.535 17.338 109.583 17.3866 109.583 17.4351C109.583 17.5808 109.535 17.6779 109.486 17.7265C109.389 17.775 109.34 17.8236 109.243 17.8721L109.68 18.4548L109.34 18.4062ZM108.903 16.5126C108.758 16.5126 108.612 16.5612 108.466 16.6098C108.321 16.6583 108.175 16.7554 108.078 16.8525C107.981 16.9496 107.884 17.0953 107.835 17.2409C107.787 17.3866 107.738 17.5323 107.738 17.6779C107.738 17.8236 107.738 18.0178 107.835 18.1634C107.884 18.3091 107.981 18.4548 108.078 18.5519C108.175 18.649 108.321 18.7461 108.466 18.7946C108.612 18.8432 108.758 18.8917 108.903 18.8917C109.098 18.8917 109.243 18.8432 109.389 18.7946C109.535 18.7461 109.68 18.649 109.777 18.5519C109.875 18.4548 109.972 18.3091 110.02 18.1634C110.069 18.0178 110.117 17.8721 110.117 17.7265C110.117 17.5808 110.069 17.3866 110.02 17.2409C109.972 17.0953 109.875 16.9496 109.777 16.8525C109.68 16.7554 109.535 16.6583 109.389 16.6098C109.243 16.5612 109.098 16.5126 108.903 16.5126ZM108.855 19.0859C108.661 19.0859 108.466 19.0374 108.321 18.9888C108.175 18.9403 108.03 18.8432 107.884 18.6975C107.738 18.5519 107.641 18.4062 107.593 18.2605C107.495 18.1149 107.495 17.9207 107.495 17.7265C107.495 17.5323 107.544 17.338 107.593 17.1924C107.69 17.0467 107.738 16.9011 107.884 16.7554C108.03 16.6098 108.175 16.5126 108.321 16.4641C108.466 16.4155 108.661 16.367 108.855 16.367C109.049 16.367 109.243 16.4155 109.389 16.4641C109.535 16.5126 109.68 16.6098 109.826 16.7554C109.972 16.9011 110.069 17.0467 110.117 17.1924C110.214 17.338 110.214 17.5323 110.214 17.7265C110.214 17.9207 110.166 18.1149 110.117 18.2605C110.02 18.4062 109.972 18.5519 109.826 18.6975C109.68 18.8432 109.535 18.9403 109.389 18.9888C109.243 19.0374 109.098 19.0859 108.855 19.0859Z" fill="white"/>
<path d="M108.612 17.6294V17.1924H109.001C109.098 17.1924 109.146 17.1924 109.243 17.2409C109.292 17.2895 109.34 17.338 109.34 17.3866C109.34 17.4837 109.34 17.5323 109.243 17.5323C109.195 17.5808 109.098 17.5808 109.049 17.5808L108.612 17.6294ZM108.321 16.9496V18.3576V18.4062H108.612V17.8721H108.903L109.292 18.4062H109.632L109.583 18.3576L109.195 17.8236C109.292 17.8236 109.34 17.7265 109.438 17.6779C109.535 17.5808 109.535 17.5323 109.535 17.3866C109.535 17.2895 109.535 17.2409 109.486 17.2409C109.486 17.1924 109.438 17.1438 109.389 17.0953C109.34 17.0467 109.292 16.9982 109.195 16.9982C109.098 16.9496 109.049 16.9496 108.952 16.9496H108.321ZM108.903 18.8917C108.709 18.8917 108.564 18.8432 108.418 18.7946C108.272 18.7461 108.175 18.649 108.03 18.5519C107.884 18.4547 107.835 18.3091 107.787 18.1634C107.738 18.0178 107.69 17.8721 107.69 17.7265C107.69 17.5808 107.738 17.4351 107.787 17.2895C107.835 17.1438 107.932 17.0467 108.03 16.9011C108.127 16.804 108.272 16.7069 108.418 16.6583C108.564 16.6098 108.709 16.5612 108.855 16.5612C109.001 16.5612 109.146 16.6098 109.292 16.6583C109.438 16.7069 109.535 16.804 109.68 16.9011C109.826 16.9982 109.874 17.1438 109.923 17.2895C109.972 17.4351 110.02 17.5808 110.02 17.7265C110.02 17.8721 109.972 18.0178 109.923 18.1634C109.874 18.3091 109.777 18.4062 109.68 18.5519C109.583 18.649 109.438 18.7461 109.292 18.7946C109.195 18.8917 109.049 18.8917 108.903 18.8917ZM108.903 16.3184C108.709 16.3184 108.515 16.367 108.369 16.4155C108.224 16.4641 108.078 16.5612 107.932 16.7069C107.787 16.8525 107.69 16.9982 107.641 17.1438C107.544 17.2895 107.544 17.4837 107.544 17.6779C107.544 17.8721 107.593 18.0663 107.641 18.212C107.738 18.3576 107.787 18.5033 107.932 18.649C108.078 18.7946 108.224 18.8917 108.369 18.9403C108.515 18.9888 108.709 19.0374 108.903 19.0374C109.098 19.0374 109.292 18.9888 109.438 18.9403C109.583 18.8917 109.729 18.7946 109.875 18.649C110.02 18.5033 110.117 18.3576 110.166 18.212C110.263 18.0663 110.263 17.8721 110.263 17.6779C110.263 17.4837 110.214 17.2895 110.166 17.1438C110.069 16.9982 110.02 16.8525 109.875 16.7069C109.729 16.5612 109.583 16.4641 109.438 16.4155C109.292 16.367 109.098 16.367 108.903 16.3184ZM109.001 17.6779C109.098 17.6779 109.146 17.6779 109.243 17.6294C109.292 17.5808 109.34 17.5322 109.34 17.4351C109.34 17.338 109.34 17.2895 109.243 17.2895C109.195 17.2409 109.098 17.1924 109.001 17.1924H108.612V17.6779H109.001ZM108.369 16.9982H108.952C109.049 16.9982 109.098 16.9982 109.195 17.0467C109.292 17.0467 109.34 17.0953 109.34 17.1438C109.389 17.1924 109.389 17.2409 109.438 17.2409C109.438 17.2895 109.486 17.338 109.486 17.3866C109.486 17.4837 109.438 17.5808 109.389 17.6779C109.292 17.775 109.243 17.775 109.146 17.8236L109.583 18.3576H109.34L108.952 17.8236H108.612V18.3576H108.418L108.369 16.9982ZM108.903 18.9403C109.049 18.9403 109.195 18.8917 109.34 18.8432C109.486 18.7946 109.632 18.6975 109.729 18.6004C109.826 18.5033 109.923 18.3576 109.972 18.212C110.02 18.0663 110.069 17.9207 110.069 17.775C110.069 17.6294 110.069 17.4351 109.972 17.338C109.923 17.1924 109.826 17.0467 109.729 16.9496C109.632 16.8525 109.486 16.7554 109.34 16.7069C109.195 16.6098 109.049 16.6098 108.855 16.6098C108.709 16.6098 108.515 16.6583 108.418 16.7069C108.272 16.7554 108.127 16.8525 108.03 16.9496C107.932 17.0467 107.835 17.1924 107.787 17.338C107.738 17.4837 107.69 17.6294 107.69 17.775C107.69 17.9207 107.738 18.0663 107.787 18.212C107.835 18.3576 107.932 18.5033 108.03 18.6004C108.127 18.6975 108.272 18.7946 108.418 18.8432C108.564 18.8917 108.709 18.9403 108.903 18.9403ZM108.903 16.367C109.098 16.367 109.292 16.4155 109.438 16.4641C109.583 16.5126 109.729 16.6098 109.875 16.7554C110.02 16.9011 110.117 16.9982 110.166 17.1924C110.263 17.338 110.263 17.5322 110.263 17.7265C110.263 17.9207 110.214 18.0663 110.166 18.2605C110.069 18.4062 110.02 18.5519 109.875 18.6975C109.729 18.8432 109.583 18.9403 109.438 18.9888C109.292 19.0859 109.098 19.0859 108.903 19.0859C108.709 19.0859 108.515 19.0374 108.369 18.9888C108.224 18.9403 108.078 18.8432 107.932 18.6975C107.787 18.5519 107.69 18.4547 107.641 18.2605C107.544 18.1149 107.544 17.9207 107.544 17.7265C107.544 17.5322 107.593 17.3866 107.641 17.1924C107.738 17.0467 107.787 16.9011 107.932 16.7554C108.078 16.6098 108.175 16.5126 108.369 16.4641C108.564 16.4155 108.709 16.367 108.903 16.367Z" fill="white"/>
<path d="M41.8523 14.9104C42.2893 14.4734 43.1147 13.7451 43.1147 13.7451C43.5031 13.3082 43.4546 13.3567 44.2314 13.0169C44.3285 12.9683 44.3771 12.9198 44.4742 12.8712C44.5713 12.8226 44.6198 12.8226 44.7169 12.7741C44.6684 12.7255 44.8141 12.7255 44.9112 12.677C45.0568 12.677 45.0568 12.5799 45.3481 12.3857C45.6394 12.2886 45.9793 12.0458 46.2706 12.0944C46.3677 12.1429 46.5134 12.3371 46.3192 12.7741C46.125 13.0654 45.9308 13.3567 45.6394 13.6966C45.4452 13.8422 45.251 14.0365 45.1054 14.2307C44.9597 14.4249 44.5713 14.522 44.1829 14.7162C43.8916 14.8619 43.5031 15.0075 43.2118 15.1046C42.8234 15.2503 42.6292 15.3474 42.435 15.3959C42.2893 15.493 41.9494 15.5901 41.7552 15.6387C41.8038 15.2988 41.4154 15.3959 41.8523 14.9104ZM58.9429 20.3968C58.9429 20.3483 58.7001 20.1541 58.7001 20.1541C58.603 20.1055 58.5544 20.0084 58.5544 20.0084C58.5544 20.0084 58.4088 19.9599 58.3117 19.9113C58.2146 19.8628 58.4573 19.9113 58.4088 19.8628C58.1175 19.7171 57.8261 19.0374 57.6319 18.1149C57.6319 18.1634 57.5348 16.8525 57.5348 16.6583C57.4377 16.0271 57.5834 15.4445 57.6319 15.0075C57.729 14.7162 57.729 14.1336 57.729 13.9394C57.7776 13.5509 57.8261 13.648 57.9232 12.8712C57.9232 12.8226 57.9718 12.677 58.0204 12.6284C58.0204 12.3857 57.9718 12.3857 57.9232 12.24C57.9718 12.1429 57.6805 11.9973 57.6319 11.8516C57.5348 11.7545 56.6123 11.7059 56.6123 11.7059C56.5638 11.7545 56.4667 11.7059 56.4181 11.7059C56.2725 11.7545 56.1754 11.7545 56.1754 11.7545C56.0297 11.8516 55.9326 11.8516 55.7869 11.9487C55.6898 12.0458 55.35 12.3857 55.2529 12.4828C54.7188 13.1625 55.3985 12.4342 55.1558 12.7255C54.9615 12.9198 54.6702 13.2596 54.3304 13.648C54.1847 13.7937 54.2333 13.8908 54.0876 14.0365C53.9905 14.1821 53.8448 14.4249 53.7477 14.522C53.4079 14.9104 52.9709 15.2017 52.9223 15.2503C52.6796 15.6387 52.6796 15.5416 52.4368 16.0271C52.3397 16.1728 52.2426 16.2213 52.0969 16.367C52.0484 16.5126 51.7085 16.7554 51.4172 17.1924C51.4172 17.2409 51.3686 17.338 51.3201 17.338L51.223 17.4351C51.223 17.338 51.223 17.4351 51.223 17.338C51.223 16.9982 51.3686 16.7554 51.3201 16.7554C51.3201 16.7069 51.2715 16.5126 51.2715 16.4641C51.5143 15.93 51.3201 15.93 51.4658 15.4445C51.3686 15.5901 51.5143 15.1046 51.5143 15.1046C51.6114 14.8619 51.66 14.5705 51.7085 14.3278C51.7085 14.3278 51.9027 13.8908 51.9027 13.3082C51.9027 13.0169 51.7571 13.1625 51.7571 13.1625C51.7571 13.1625 51.6114 12.9198 51.0288 13.0169C50.8346 13.0169 50.5918 12.9683 50.3005 13.114C50.1548 13.1625 50.1548 13.1625 49.9606 13.2596C49.8635 13.3082 49.6693 13.5509 49.6208 13.5995C49.5722 13.648 49.5237 13.6966 49.5237 13.7451C49.5237 13.7937 49.4265 13.8422 49.378 13.8908C49.3294 13.9394 49.2323 14.1821 49.1838 14.2792C49.0867 14.4249 48.9896 14.522 48.8925 14.6676C48.6497 14.959 48.6497 14.9104 48.4555 15.2017C48.3584 15.2988 48.3098 15.4445 48.3098 15.4445C48.2613 15.5416 48.2127 15.6387 48.1642 15.6872C47.97 15.93 47.8729 15.9786 47.7272 16.1242C47.6787 16.367 46.7562 16.9011 46.7076 17.0953C46.7562 16.9011 45.8822 17.9692 45.5423 18.0663C45.5423 18.0663 43.9887 19.2316 43.1633 19.3772C42.1922 19.7657 41.561 19.4258 41.3668 19.2801C41.2212 19.0859 41.1241 19.1345 41.027 18.9888C41.027 18.9888 40.8813 18.8432 40.9298 18.8432C40.2501 18.2605 40.59 17.5808 40.7842 17.1924C40.7842 17.0953 40.7842 17.0953 40.8327 17.0467C40.9784 16.9982 41.1726 16.9496 41.5125 16.8525C41.6096 16.804 41.8038 16.8525 41.9494 16.8525C41.998 16.8525 42.0951 16.804 42.2893 16.7554C42.5321 16.6583 42.8719 16.5126 42.9691 16.4641C43.0662 16.4155 43.1633 16.4641 43.2604 16.4155C43.5031 16.3184 43.7459 16.2213 43.7459 16.2213C43.9887 16.1242 44.2314 16.0271 44.4256 15.93C44.5713 15.8815 44.5713 15.8329 44.6684 15.7844C44.8141 15.6872 45.0568 15.6387 45.2025 15.5416C45.251 15.493 45.3967 15.3959 45.4452 15.3474C45.5423 15.2988 45.5423 15.3474 45.6394 15.2503C45.7365 15.2017 45.9308 15.1046 46.0279 15.0561C46.3192 14.8619 46.4648 14.6191 46.7562 14.3763C47.096 13.9879 47.3388 13.648 47.6786 13.114C47.8243 12.8712 47.97 12.5799 48.0671 12.1429C48.0671 11.9001 48.1642 11.5603 47.6786 11.0748C47.2902 10.7349 46.659 10.6863 46.4648 10.7349C44.6684 11.0262 44.2314 11.5117 43.4546 11.8516C42.7748 12.2886 42.0951 12.7741 41.2697 13.648C40.4443 14.4734 39.6675 15.493 39.3276 16.6583C39.3276 17.2409 38.9392 18.2605 39.4247 19.0374C39.4247 19.1345 39.4247 19.2316 39.4247 19.3772C39.6189 19.62 39.8617 19.9113 40.1045 20.1541H40.0559C40.4929 20.494 41.1241 20.7367 41.3668 20.7367C41.3668 20.7367 41.3668 20.7367 41.3183 20.7367C41.561 20.8338 41.7552 20.8338 41.9494 20.8338C41.9009 20.8338 41.8523 20.8338 41.8523 20.8338C42.7748 20.8338 43.5517 20.6882 44.1829 20.4454C44.28 20.3969 44.3285 20.3483 44.4256 20.3483C45.7851 19.9599 45.6394 19.5229 46.659 19.0374L46.8047 18.9403C47.3873 18.1634 47.9214 18.0178 48.504 17.4837H48.5526C48.5526 17.4837 48.7954 17.338 48.941 17.0953C49.0381 16.9496 49.0867 16.8525 49.1838 16.7069C49.2809 16.6097 49.378 16.4641 49.5237 16.3184C49.5237 16.3184 49.6208 16.1242 49.6208 16.0757C49.7664 15.7358 49.9121 15.6387 49.9606 15.6387C50.0092 15.8329 50.0092 16.0757 49.8635 16.4155C49.815 16.7554 49.9121 16.9982 49.815 17.2895C49.815 17.3866 49.7179 17.9207 49.7664 18.0663C49.815 18.1634 49.7179 18.2605 49.7664 18.3576C49.815 18.4062 49.8635 18.6004 49.9121 18.649C49.9606 18.7461 50.0092 18.7461 50.0577 18.7946C50.1063 18.8432 50.1548 18.8917 50.2034 18.9403C50.3005 18.9403 50.349 19.0859 50.4462 19.0859C50.5433 19.0859 50.6404 19.183 50.7375 19.183C50.7375 19.183 50.9317 19.2316 50.9802 19.2316C51.0773 19.2316 51.1259 19.2316 51.223 19.2316C51.223 19.2316 51.2715 19.2316 51.3687 19.183H51.4658C51.4658 19.2316 51.5629 19.183 51.7085 19.0859C51.7571 19.0859 51.8542 18.9888 51.8542 18.9888C51.8542 18.9888 51.9998 18.8432 52.0484 18.8432C52.0484 18.7946 52.1455 18.7946 52.1455 18.7461C52.1455 18.6975 52.2426 18.649 52.2911 18.6004C52.3397 18.5519 52.4368 18.5033 52.4368 18.4547C52.4854 18.4062 52.7281 18.0663 52.7767 18.0178C52.9223 17.775 53.4079 17.4351 53.505 17.2409C53.6506 17.0953 54.7188 15.6387 54.8644 15.493C55.1558 15.2017 55.3014 15.0561 55.4471 14.8133C55.7869 14.4249 55.7869 14.522 56.0297 14.2307C56.0783 14.1821 56.1754 13.7937 56.2725 13.7451C56.321 13.6966 56.2725 13.9394 56.3696 13.8422C56.1268 14.6676 56.1754 14.8133 56.1268 15.7358C56.1268 15.7358 56.2239 16.3184 56.1268 16.5612C56.1268 16.5612 56.1754 17.0953 56.1754 17.1438C56.1754 17.5322 56.1754 17.3866 56.4181 18.3576C56.6123 19.1345 56.8551 19.8628 57.6805 20.6396C57.8747 20.7853 58.1175 20.9795 58.5544 21.028C58.7972 21.028 58.9429 20.9309 58.9429 20.9309C58.9429 20.9309 58.8457 20.9309 58.8457 20.8824C58.9429 20.8338 58.9429 20.8824 58.9914 20.7853V20.6882C58.9914 20.6882 59.0885 20.6396 59.1371 20.5911L59.0885 20.494C59.0885 20.4454 59.0885 20.5425 59.1371 20.494C59.1371 20.5425 58.9429 20.3968 58.9429 20.3968ZM65.5946 19.1345C66.0801 18.9403 67.9736 17.3866 68.2164 17.0953C68.3621 16.9982 68.3135 17.0467 68.4592 16.9011C68.5077 16.8525 68.6048 16.6583 68.6048 16.6583L68.9447 16.2699C68.9932 16.2213 68.8961 16.2699 69.0903 16.1242V15.9786C69.1389 15.93 69.236 15.8815 69.2845 15.8329C69.2845 15.93 69.1874 16.0757 69.1874 16.1728C69.1874 16.2699 69.1874 16.367 69.1389 16.4641C69.1389 16.6097 69.0903 16.8525 69.0903 16.8525C69.0903 16.8525 69.0903 17.6779 69.236 17.9692C69.236 18.0663 69.3817 18.3576 69.3817 18.3576C69.4302 18.4547 69.4788 18.8917 69.4788 18.8917C69.4788 18.8917 69.7215 19.4258 69.8186 19.5229C69.9643 19.7171 70.0128 19.9113 70.1585 20.057C70.2556 20.1541 70.3042 20.2512 70.4498 20.3483C70.5469 20.3483 70.644 20.4454 70.6926 20.494C70.7897 20.5425 71.0324 20.3969 71.1295 20.4454C71.2267 20.3969 71.2752 20.3483 71.3723 20.2997C71.4209 20.2026 71.4694 20.1541 71.518 20.057C71.518 20.057 71.2752 19.3287 71.2267 19.2316C71.1295 19.0859 71.081 18.9888 70.9839 18.8432C70.9353 18.7461 70.8868 18.6004 70.8868 18.5033C70.8382 18.3576 70.7897 18.212 70.7897 18.1149C70.7411 17.9207 70.6926 17.7265 70.6926 17.5808C70.6926 17.5808 70.5955 17.2409 70.6926 16.8525V16.5126C70.6926 15.9786 70.7897 15.0075 70.9353 14.3763C70.9839 14.2792 71.0324 14.1336 71.081 14.0365C71.0324 14.085 71.0324 14.085 71.0324 14.0365C71.1295 13.7451 71.0324 14.0365 71.081 13.6966C71.1295 13.5024 71.081 13.5509 71.2752 13.114C71.3238 12.9683 71.4209 12.7255 71.4209 12.7255C71.4694 12.677 71.4694 12.6284 71.518 12.4828C71.4694 12.24 70.5955 12.1429 70.3042 12.3857C70.2556 12.4342 70.207 12.4828 70.1585 12.4828C70.0614 12.5799 69.9643 12.6284 69.8672 12.7255C69.7701 12.8712 69.7701 12.8712 69.7215 12.9683C69.673 13.0654 69.6244 13.114 69.5759 13.2111C69.3817 13.5024 69.5759 13.4538 69.4788 13.5995C69.3331 13.8422 69.236 14.0365 69.0903 14.2307C69.0903 14.2792 69.0418 14.3278 68.9932 14.3763L68.5563 14.8619C68.4592 14.9104 67.828 15.5416 67.7309 15.5901C67.7794 15.5901 67.3425 15.93 67.2939 15.9786C67.1482 16.1242 66.8569 16.367 66.7598 16.4155L65.7888 17.1924C65.4003 17.4351 65.4003 17.5322 64.9634 17.775L64.575 18.0178C64.0894 18.3576 63.5068 18.5033 63.0698 18.5519C62.7785 18.5519 62.5357 18.4062 62.3901 18.212C62.293 18.1149 62.1473 17.8721 62.1473 17.8236C62.0502 17.5808 62.0502 17.8236 62.0017 17.5322C61.7104 17.2409 62.5843 15.2503 62.9727 14.9104C63.1184 14.6676 63.3611 14.4249 63.5068 14.1821V14.2307C63.6525 13.9879 64.8663 12.8712 65.109 12.7255H65.0605C65.2547 12.5313 65.2547 12.6284 65.4489 12.4828C65.4003 12.4342 65.5946 12.2886 65.6431 12.24C65.7402 12.1429 66.0315 11.9487 66.2257 11.8516V11.9001C66.3714 11.803 66.5656 11.6574 66.6142 11.6574C66.6627 11.6574 66.7113 11.6574 66.8084 11.6088C66.8084 11.6088 66.8084 11.6574 66.8084 11.7059C66.954 11.7059 66.8084 11.8516 66.8084 11.8516C66.6627 11.9973 66.7113 12.2886 66.7113 12.2886C66.7113 12.2886 66.8084 12.4342 66.8569 12.5313C66.954 12.6284 67.1482 12.7255 67.2453 12.677C67.3424 12.7255 67.391 12.7255 67.4396 12.677C67.4396 12.677 67.6338 12.677 67.6823 12.677C67.828 12.5799 68.0222 12.1915 68.0222 12.1915C68.1193 12.0458 68.0222 11.9487 68.0707 11.9487C68.0707 11.9487 68.1678 11.9001 68.2164 11.7059C68.2649 11.4146 68.1193 11.6574 68.1678 11.269C68.2649 10.9776 67.7794 10.4436 67.5852 10.3465C67.2939 10.1523 67.0511 10.1523 66.8569 10.1523H66.6142C66.2257 10.1523 65.983 10.2494 65.7402 10.3465C65.2547 10.5407 64.8177 10.7349 64.3807 11.0262C64.3807 11.0262 63.9438 11.3175 63.701 11.5117C63.6039 11.5603 63.6039 11.5603 63.5553 11.5603L62.4386 12.6284L62.4872 12.677C62.293 12.9198 62.3901 12.677 62.1959 12.9198C62.1959 13.0654 61.856 13.3082 61.7589 13.4538C61.7104 13.5509 61.6618 13.5509 61.6132 13.648C61.6132 13.6966 61.6132 13.648 61.6618 13.648L61.5647 13.7937C61.5161 13.8422 61.4676 13.8422 61.5161 13.7937C61.1277 14.085 59.9625 16.4155 60.1081 17.2895C60.0596 17.4351 60.1567 17.6779 60.1081 17.8236L60.1567 17.8721V17.9692C60.448 18.7946 60.2052 18.1634 60.5451 18.8432C60.8364 19.1345 60.9821 19.2801 61.1763 19.3772C61.1763 19.3772 61.0792 19.2801 61.1763 19.3287C61.1763 19.3772 61.419 19.4258 61.419 19.5229C61.5161 19.5715 61.7589 19.7171 61.7104 19.62C61.7589 19.6686 62.0017 19.7657 61.856 19.7657C61.9531 19.8142 62.0502 19.8628 62.0988 19.8628C62.0988 19.8628 62.4386 19.9599 62.6328 19.9599C62.7299 19.9599 62.7785 19.9599 62.7785 20.0084C62.9242 20.0084 63.0213 20.0084 63.1669 20.0084L63.6525 19.9599C64.575 19.8142 65.5946 19.1345 65.5946 19.1345ZM72.8289 11.1719C72.8289 10.9291 72.9745 10.8805 72.9745 10.6863C72.9745 10.4436 72.5861 10.4436 72.6347 10.1523C72.489 10.1037 72.489 9.95804 72.3434 9.90949C72.2463 9.86094 72.1006 9.90949 72.1492 9.76383C71.9549 9.76383 71.9064 9.71528 71.7607 9.66673C71.3723 9.66673 70.7897 9.71528 70.644 10.0551C70.644 10.1523 70.5955 10.2008 70.644 10.2494C70.5469 10.2979 70.5469 10.3465 70.5469 10.4436C70.5955 10.5407 70.644 10.5892 70.5955 10.7349C70.7897 10.832 70.6926 11.1719 70.9839 11.2204C70.9839 11.3175 70.9353 11.269 70.9839 11.3175C71.081 11.3661 71.1295 11.3175 71.2267 11.3175C71.518 11.7059 72.1492 11.2204 72.5861 11.4146C72.6347 11.4146 72.6832 11.2204 72.8289 11.1719ZM25.7329 14.6676C26.1699 14.2307 27.6264 13.2111 27.6264 13.2111L27.8206 12.9683C27.9177 12.9198 28.3547 12.8226 28.5004 12.7255C28.9374 12.4828 29.4229 12.1915 29.957 12.1429C30.1997 11.9973 30.4425 11.9001 30.6852 11.9001C31.0251 11.6574 31.5106 11.803 31.8991 11.9001C30.7824 12.8226 29.4229 13.4538 28.1605 14.085C27.9663 14.1821 26.6554 14.7162 26.1213 14.8619C25.7329 15.0075 25.4416 14.8619 25.7329 14.6676ZM38.0652 11.4632C38.2109 11.6088 38.8421 11.1233 38.9877 11.0748C39.2791 10.5892 39.3276 10.7349 39.6189 9.71528C39.6675 9.56962 39.5218 9.42396 39.5704 9.22975C39.4247 9.13265 39.4247 8.93844 39.1819 8.93844C39.1334 8.69568 38.7935 8.98699 38.5993 8.84133C38.4537 8.93844 38.2594 8.93844 38.2109 8.98699C38.0167 9.0841 37.7739 9.27831 37.5797 9.42396C37.5312 9.47252 37.5312 9.52107 37.4826 9.56962H37.3855V9.71528C37.2398 9.86094 37.0456 10.0551 36.9485 10.2008C36.8514 10.2979 36.8514 10.2979 36.8029 10.395C36.7058 10.4921 36.7058 10.5407 36.6087 10.6863C36.5116 10.832 36.4145 10.8805 36.3173 10.9776C36.2202 11.1719 36.0746 11.3175 36.026 11.4632C35.9775 11.5603 35.9775 11.6088 35.9289 11.7059C35.8804 11.803 35.7833 11.8516 35.7347 11.9487C35.7347 11.9973 35.7347 12.0458 35.7347 12.0944C35.7347 12.1429 35.6376 12.1915 35.6376 12.1915C35.4434 12.5799 35.3463 13.0169 35.1521 13.3567C35.2492 13.3567 35.1035 13.5024 35.1035 13.648C35.055 13.7937 35.1035 13.8908 35.0064 13.8908C35.1035 13.9879 34.9093 14.1821 35.0064 14.3278V14.3763C34.7637 14.6191 34.5209 14.959 34.3752 15.2017C33.4527 15.93 32.5302 16.6583 31.5106 17.2409C30.9766 17.4837 30.5396 17.775 30.0055 18.0178C29.7142 18.1634 29.4229 18.3091 29.083 18.4062C28.9859 18.4062 28.9374 18.4547 28.8888 18.5033C28.7917 18.5519 28.7431 18.5519 28.646 18.6004C28.5489 18.6004 28.5004 18.649 28.4033 18.649C27.2866 18.9403 25.6358 19.5229 24.3734 19.3772C24.2278 19.2801 23.985 19.2316 23.8393 19.1345C23.8393 19.0859 23.7908 19.0859 23.8393 19.0374C23.6937 19.0859 23.4995 18.7461 23.4995 18.5519C23.4024 18.0178 23.985 17.0467 24.2278 16.9496C24.6647 16.9496 24.9075 16.6583 25.2959 16.6583C25.6843 16.5126 26.0728 16.367 26.4612 16.2213C26.5097 16.1728 26.5583 16.1242 26.6068 16.1728C27.3351 15.8815 27.9663 15.6387 28.5004 15.493C28.5004 15.4445 30.2483 14.6676 30.4425 14.5705C31.2193 14.2792 31.8991 13.7937 32.5788 13.5024C32.5788 13.5024 32.6759 13.4053 32.6759 13.5024C32.4331 13.7451 32.9672 13.4538 33.3556 13.0654C33.5499 12.8226 33.8412 12.5313 33.8897 12.2886C33.8897 12.1429 33.7926 11.9973 33.8897 11.8516C33.7926 11.803 33.7926 11.6088 33.7441 11.5117C33.4042 11.2204 33.1129 10.832 32.6759 10.6863C32.5302 10.6378 32.2389 10.5407 32.0447 10.5407C31.8991 10.5407 31.802 10.6378 31.6563 10.6378C29.9084 10.6378 28.8402 11.2204 27.5779 11.8516C27.5293 11.9487 27.5293 11.9487 27.4808 11.9973C27.1895 12.0458 26.801 12.3371 26.5097 12.5313C25.8785 12.8712 25.3445 13.3567 24.7618 13.7451C24.0821 14.4249 23.3053 15.0561 22.8197 15.93C22.7226 16.0271 22.577 16.0757 22.4313 16.1242C22.5284 16.1242 22.5284 16.1242 22.5284 16.2213C22.2857 16.1728 21.6059 16.4155 21.1689 16.4641C21.0233 16.7069 20.4892 16.5612 20.3435 16.7554C20.0037 16.7069 18.1101 17.1924 17.9645 17.2409C17.8188 17.2895 14.4687 18.0663 14.3716 18.0663C14.1774 18.212 12.3324 18.5033 12.3324 18.5033C11.8954 18.5519 10.9729 18.8432 10.9729 18.7461C10.8758 18.7461 8.78803 18.9403 7.91408 19.2801C7.81698 19.1345 7.67132 19.3287 7.57422 19.3287C7.47711 19.2316 6.45751 19.3772 6.60317 19.4258C6.45751 19.3287 6.50606 19.5715 6.3604 19.4258C6.3604 19.3772 6.45751 19.4258 6.40895 19.3287C6.2633 19.3287 6.16619 19.3772 6.06909 19.4743C6.06909 19.4258 6.11764 19.4258 6.11764 19.3772C4.17554 19.62 1.74791 19.62 0.339882 18.6004C0.291329 18.6004 0.291329 18.649 0.194224 18.6004C0.145671 18.6004 0.0971189 18.5033 0.0485663 18.5033C-0.194197 18.8917 0.145671 19.0859 0.194224 19.2801C0.0971189 19.2801 0.0971189 19.2316 0.0485663 19.2801C1.36979e-05 19.5229 0.339882 19.5715 0.242777 19.7171C1.31093 20.3483 2.67041 20.7853 4.07843 20.6882C4.07843 20.7367 4.07843 20.7853 4.07843 20.7853C4.46685 20.7367 5.19514 20.6882 5.19514 20.7367C5.48646 20.8338 6.02053 20.7367 6.45751 20.6396C6.50606 20.7853 7.08869 20.494 7.33145 20.5425C7.33145 20.5425 7.23435 20.6396 7.33145 20.6396C7.57422 20.5425 8.39961 20.494 8.39961 20.5425C8.49672 20.5911 9.41921 20.5425 9.225 20.3968C9.41921 20.3483 9.51632 20.3969 9.61342 20.2997C9.51632 20.2997 10.5359 20.057 10.4388 20.2026C10.5359 20.2026 10.6816 20.1541 10.7787 20.1055C10.8272 20.0084 12.478 19.8628 12.5266 19.9113C12.4295 19.7657 12.915 19.7657 12.7693 19.8142C12.915 19.7657 13.9832 19.62 13.9832 19.5229C14.1774 19.4743 15.2455 19.3287 15.2455 19.3772C15.2941 19.3287 16.3137 18.9888 16.3137 19.0374C16.7507 18.8917 17.9159 18.649 18.0616 18.649L18.7413 18.5519C18.6442 18.5519 20.2464 18.0663 20.1979 18.1634C20.3435 18.1634 20.3921 18.1149 20.4892 18.0663C20.4892 17.9692 21.5574 17.6779 21.5574 17.775C21.6545 17.775 21.7516 17.6779 21.8487 17.6779C21.8487 18.0178 21.8487 18.5033 21.9943 18.7461C21.9943 18.7946 21.8972 18.7946 21.9458 18.8432C22.1885 19.3772 22.5284 19.9599 23.0139 20.3968C23.8879 20.9309 25.3445 20.8338 26.4612 20.6882C27.4322 20.4454 28.3547 20.1541 29.1801 19.8628C29.5685 19.7171 29.957 19.4743 30.3454 19.3772C30.8795 18.9888 31.4621 18.6975 31.9962 18.4547C32.5788 17.9692 33.7441 17.1924 34.2781 16.5612C34.4238 16.4641 34.5695 16.367 34.6666 16.2213V16.367C34.7151 16.6583 34.7637 16.9982 34.8608 17.2409C34.8122 17.3866 34.9093 17.4837 34.9579 17.4837C34.9093 17.5322 34.9093 17.5808 34.9093 17.6294C35.055 18.212 35.2977 18.6975 35.4434 19.2316C35.492 19.2801 35.5405 19.3287 35.5405 19.3287C35.5405 19.4258 35.5891 19.4258 35.5405 19.5229C35.6376 19.62 35.6862 19.7657 35.7347 19.8628C35.7347 19.9599 35.7347 20.0084 35.7833 20.1055C35.8804 20.3483 36.026 20.5425 36.0746 20.7853C36.2202 21.1251 36.2202 21.465 36.2688 21.8534C36.2688 21.9505 36.3173 21.9991 36.3173 22.1447C36.3173 22.2904 36.2202 22.4846 36.2202 22.6788C36.2202 22.7274 36.2202 22.7759 36.2202 22.8245C36.1717 22.9701 36.026 23.1643 35.9775 23.2615C35.9775 23.31 35.9775 23.3586 35.9775 23.4071C35.8804 23.6013 35.492 23.9897 35.3463 24.184C35.1521 24.3296 34.9579 24.4753 34.8122 24.6695C34.4238 24.9122 34.1325 25.1065 33.6955 25.3007C33.5499 25.3978 33.3071 25.4463 33.1614 25.4949C32.9672 25.5434 32.773 25.4949 32.6273 25.5434C32.5302 25.5434 32.5302 25.592 32.4331 25.592C32.2875 25.592 32.0447 25.4463 31.8991 25.6891C31.802 25.5434 31.6077 25.6405 31.4621 25.592C31.4621 25.592 31.4621 25.5434 31.4621 25.4949C31.5592 25.5434 31.5592 25.4463 31.4135 25.4949C31.3164 25.6891 31.5592 25.6891 31.5106 25.8347C31.6077 25.8347 31.6077 25.8833 31.6563 25.9318C31.5592 26.1261 31.8991 26.0775 31.802 26.2232C32.0447 26.2232 32.0933 26.2717 32.2875 26.2717C32.2875 26.3688 32.336 26.4174 32.3846 26.4174C32.5302 26.4174 32.6273 26.4174 32.8216 26.4174C32.7245 26.5145 32.8701 26.4174 32.9187 26.5145C32.8216 26.563 32.6274 26.5145 32.5302 26.6116C32.5788 26.7087 32.8701 26.7572 33.1614 26.7087C33.21 26.7087 33.3071 26.6601 33.3556 26.6601C33.4527 26.6601 33.5013 26.7572 33.5984 26.7087C33.8412 26.7087 34.0354 26.5145 34.2781 26.5145C34.3267 26.6116 34.181 26.5145 34.181 26.6116C34.2781 26.6116 34.3267 26.563 34.4238 26.563C34.4724 26.4659 34.7151 26.3688 34.7151 26.4659C34.8608 26.4659 35.0064 26.4659 35.2006 26.4174C35.4434 26.4174 35.6862 26.1746 35.8804 26.0289C36.026 25.9318 36.0746 25.8833 36.1717 25.7862C36.2202 25.7376 36.3173 25.6891 36.3659 25.6405C36.7543 25.3492 37.0942 25.0579 37.3855 24.718C37.4341 24.5238 37.5312 24.3782 37.6768 24.2325C37.6768 24.184 37.6768 24.1354 37.6768 24.0383C37.8225 23.9412 37.7739 23.8926 37.7739 23.7955C37.7739 23.747 37.871 23.6984 37.871 23.6984C37.871 23.6984 37.8225 23.6013 37.871 23.6013C37.9681 23.31 38.1623 22.8245 38.1623 22.4846C38.2109 22.0962 38.0652 21.7078 38.0167 21.4165C38.0167 21.4165 38.0652 21.3679 38.0652 21.3193C38.0652 21.2708 37.9681 21.2222 37.9681 21.1737C37.9196 20.8824 37.8225 20.6396 37.7254 20.4454C37.6283 20.2512 37.6283 20.1055 37.5312 19.9599C37.4826 19.8628 37.4826 19.7171 37.4341 19.62C37.3855 19.5229 37.2884 19.4258 37.2884 19.3287C37.2884 19.2801 37.2884 19.2316 37.2884 19.2316C37.1913 19.0374 37.0942 18.8432 36.9971 18.649C36.9485 18.5033 36.9 18.3576 36.8514 18.2605C36.7058 17.9207 36.6087 17.5322 36.5601 17.1924C36.4145 16.9496 36.3659 16.6097 36.3173 16.2699C36.2688 15.9786 36.2688 15.6387 36.3173 15.3474C36.3173 15.0075 36.3659 14.6191 36.463 14.2792C36.6572 13.5024 37.0456 12.8226 37.3855 12.1915C37.4341 12.0944 37.5312 12.0458 37.5797 11.9001C37.5797 11.803 37.6768 11.6088 37.7739 11.5117C38.1623 11.1719 37.871 11.6088 38.0652 11.4632ZM104.048 20.7853C104.048 20.8338 104.048 20.8824 104.048 20.8824C104 20.9309 103.951 20.7853 104.048 20.7853ZM104.388 20.7853V20.8338H104.34V20.7853C104.34 20.7853 104.34 20.7853 104.388 20.7853ZM103.708 20.9309C103.708 20.8338 103.854 20.7853 103.951 20.8338C103.903 20.9309 103.757 20.9795 103.708 20.9309ZM103.66 21.0766C103.563 21.0766 103.66 20.9795 103.66 20.9795C103.708 20.9795 103.66 21.028 103.708 21.028C103.708 21.028 103.66 21.028 103.66 21.0766ZM103.611 21.2222C103.563 21.2222 103.563 21.1737 103.514 21.1737C103.514 21.1251 103.563 21.1251 103.611 21.1251C103.611 21.1251 103.611 21.1737 103.611 21.2222ZM103.271 20.8824H103.223C103.223 20.7853 103.174 20.8824 103.126 20.8338C103.126 20.7853 103.223 20.7853 103.271 20.7853C103.32 20.8338 103.271 20.8824 103.271 20.8824ZM103.029 21.2708V21.2222H103.077C103.126 21.2708 103.077 21.2708 103.029 21.2708ZM103.029 20.9795C102.931 21.028 102.931 20.9309 102.883 20.8824C102.931 20.8824 102.98 20.8824 103.029 20.8824C103.029 20.9309 102.98 20.9309 103.029 20.9795ZM102.689 21.465C102.543 21.3679 102.543 21.5136 102.397 21.465C102.446 21.3193 102.64 21.3679 102.786 21.2708C102.786 21.3193 102.834 21.3193 102.834 21.3679C102.737 21.3679 102.689 21.3679 102.689 21.465ZM102.349 21.1251C102.446 21.1251 102.543 21.0766 102.495 21.1737C102.446 21.1737 102.349 21.2222 102.349 21.1251ZM102.009 21.3679C102.009 21.2708 102.252 21.2222 102.252 21.3193C102.155 21.3193 102.058 21.3193 102.009 21.3679ZM101.766 21.3193C101.815 21.2708 101.912 21.2222 102.009 21.2222C101.912 21.3193 101.815 21.3193 101.766 21.3193ZM101.621 21.5136C101.621 21.4165 101.718 21.4165 101.718 21.465C101.669 21.5136 101.621 21.5136 101.621 21.5136ZM101.232 21.4165C101.184 21.3193 101.329 21.3679 101.378 21.3193C101.378 21.4165 101.329 21.4165 101.232 21.4165ZM101.038 21.7078C101.038 21.6592 101.086 21.6592 101.135 21.6107C101.086 21.6592 101.086 21.7078 101.038 21.7078ZM100.892 21.7563C100.892 21.6592 100.989 21.6592 100.989 21.7078C100.989 21.7563 100.941 21.7563 100.892 21.7563ZM100.31 21.6592C100.407 21.6107 100.407 21.7563 100.455 21.7078C100.455 21.7563 100.31 21.7078 100.31 21.6592ZM98.8045 21.9505C98.8531 21.8534 98.9016 21.8049 99.0473 21.7563C99.0958 21.7563 99.1444 21.7563 99.1929 21.8049C99.0958 21.8049 99.0473 21.902 98.8045 21.9505ZM98.6589 22.0962C98.6589 22.0476 98.7074 22.0476 98.756 22.0476V22.0962C98.7074 22.0962 98.6589 22.0962 98.6589 22.0962ZM86.7149 11.1719C86.5693 9.76383 86.6664 8.69568 86.6178 7.38476C86.6664 7.38476 86.6664 7.3362 86.7149 7.3362C86.6178 6.46226 86.812 5.73397 86.8606 4.86002C87.1033 4.61726 86.7635 3.88897 87.1033 3.79186C87.0548 3.59765 87.2976 3.35489 87.1519 3.30634C87.249 2.91792 87.3461 2.57805 87.5403 2.28673C87.5403 2.23818 87.5403 2.18963 87.5403 2.14108C87.686 1.89831 88.123 1.65555 88.4143 1.50989C88.5114 1.50989 88.3172 1.89831 88.4628 1.80121C88.6085 1.94687 88.657 2.18963 88.8027 2.33529L88.8512 2.6266C88.9969 2.77226 88.8512 3.20923 88.9969 3.30634C88.9969 3.25779 88.9483 3.69476 88.9969 3.64621C88.9483 4.42305 89.094 4.22884 88.9969 4.90857C88.9969 5.00568 89.094 5.00568 88.9969 5.34555C88.9969 5.34555 88.9483 5.53976 88.8998 5.53976C88.8998 5.49121 88.9483 5.68542 88.8512 5.68542C88.8027 5.78252 88.8512 5.87963 88.8027 6.02528C88.8027 6.02528 88.8512 6.02528 88.8998 6.02528C88.8998 6.02528 88.8998 6.07384 88.8998 6.12239C88.8512 6.17094 88.8027 6.17094 88.8027 6.21949C88.8027 6.26805 88.8512 6.21949 88.8512 6.21949C88.8027 6.3166 88.7541 6.36515 88.8027 6.51081C88.8027 6.55936 88.8027 6.55936 88.8027 6.60791C88.7541 6.65647 88.7056 6.65647 88.657 6.70502C88.657 6.80212 88.7056 6.94778 88.5599 6.94778C88.657 7.04489 88.5599 7.14199 88.6085 7.19055C88.5114 7.19055 88.5114 7.2391 88.5114 7.28765C88.5599 7.38476 88.3657 7.62752 88.2686 7.72462C88.3657 7.82173 88.2686 8.01594 88.4143 8.01594C88.3657 8.06449 88.3172 8.11305 88.2686 8.06449C88.123 8.30726 88.0258 8.55002 87.9287 8.79278C88.0258 8.74423 87.9773 8.84133 88.0258 8.88989C87.9287 8.93844 87.8802 8.98699 87.8316 9.03554C87.8802 9.1812 87.7345 9.27831 87.7345 9.37541C87.7345 9.42396 87.5889 9.71528 87.5403 9.71528C87.4918 9.95804 87.3461 10.1037 87.249 10.2979C87.1519 10.2979 87.1519 10.4436 87.1519 10.5407C86.812 10.7349 86.9091 11.0748 86.7149 11.1719ZM79.1893 14.1336C78.9465 14.6676 78.9951 15.2017 78.5581 15.3959V15.6387C78.461 16.0271 78.1697 16.2213 77.9269 16.5126L78.024 16.6097C77.9269 16.8525 77.6356 17.1924 77.4414 17.2895C77.0044 17.6294 76.5674 18.1634 75.9848 18.5519C75.3536 18.5519 75.5478 18.8432 74.7224 18.7946C74.1884 18.5519 74.1884 17.7265 74.4797 17.4837C74.9166 16.5126 75.0623 15.9786 75.4022 15.6872C75.9848 14.8619 77.2472 14.1821 77.587 13.6966C78.0726 13.2111 78.8494 12.9683 79.3835 12.7255L79.1893 14.1336ZM106.864 19.5715C106.864 19.62 106.864 19.6686 106.864 19.7171C106.767 19.6686 106.767 19.7657 106.67 19.7657C106.67 19.6686 106.767 19.6686 106.719 19.5715C106.67 19.5229 106.573 19.5715 106.573 19.5229C106.67 19.4258 106.621 19.4743 106.767 19.4743C106.767 19.4258 106.864 19.4258 106.816 19.3772C106.719 19.3287 106.524 19.5229 106.379 19.4258C106.427 19.4258 106.427 19.3287 106.476 19.2801C106.282 19.2801 106.087 19.3772 105.99 19.4743C105.893 19.3772 105.699 19.4744 105.602 19.5715C105.699 19.5229 105.699 19.6686 105.748 19.5715C105.748 19.5229 105.845 19.4743 105.893 19.4743C105.893 19.5715 106.039 19.4744 106.039 19.5715C105.893 19.62 105.748 19.6686 105.602 19.6686C105.602 19.62 105.65 19.62 105.602 19.5715C105.456 19.62 105.408 19.62 105.262 19.62C105.311 19.62 105.359 19.62 105.359 19.5715C105.213 19.5715 105.213 19.62 105.213 19.6686C104.971 19.6686 104.825 19.7657 104.679 19.8628C104.679 19.8142 104.728 19.8142 104.728 19.7657C104.582 19.7657 104.437 19.8628 104.291 19.9599C104.242 19.9113 104.194 19.9599 104.145 19.8628C103.368 20.1541 102.397 20.1541 101.718 20.4454C101.475 20.3969 101.184 20.4454 100.941 20.5425C100.407 20.494 99.9212 20.6882 99.4843 20.6882C99.3871 20.6882 99.29 20.6882 99.2415 20.6396C98.9987 20.7367 98.756 20.6396 98.4647 20.7367C97.9306 20.6882 97.3479 20.7367 96.8139 20.7367C96.474 20.7367 96.1341 20.6882 95.8428 20.6396C95.5515 20.6396 95.3087 20.6396 95.066 20.5911C94.9689 20.5911 94.9203 20.494 94.8232 20.494C94.7747 20.494 94.6776 20.5425 94.629 20.494C94.3377 20.3968 93.9493 20.3483 93.6579 20.2997C93.4152 20.1541 93.0753 20.2026 92.8811 20.0084C92.5412 19.9599 92.2014 19.8628 91.9586 19.62C91.3274 19.3772 90.7933 19.0374 90.3078 18.649C90.2107 18.649 90.2107 18.6004 90.1622 18.6004C90.1136 18.4547 90.0165 18.4062 89.8708 18.4062C89.968 18.3091 89.8223 18.3091 89.8223 18.212C89.5795 18.1149 89.4824 17.8236 89.2397 17.7265C88.9969 17.338 88.5599 16.9496 88.3172 16.4641C88.2201 16.4641 88.2201 16.4641 88.1715 16.4155C87.9287 15.8815 87.5889 15.5416 87.4432 14.9104C87.3947 14.9104 87.3461 14.9104 87.3461 14.8619C87.3461 14.6191 87.1033 14.4249 87.1519 14.2307C87.1519 14.1821 87.0548 14.2307 87.0548 14.1821C87.0548 13.8908 86.9091 13.8908 86.9091 13.5024C87.0062 13.5509 86.9577 13.3567 87.0062 13.2596C87.0548 13.2596 87.0548 13.3567 87.1033 13.2596C87.1519 13.1625 87.1519 13.0654 87.249 12.9683C87.2005 12.8226 87.4918 12.7255 87.3947 12.5313C87.6374 12.4342 87.4918 12.1429 87.7345 12.0944C87.7345 12.0458 87.686 12.0458 87.686 11.9973C87.7345 11.9487 87.7831 11.9487 87.7831 11.9973C87.8316 11.7545 88.1229 11.6574 87.9773 11.4146C88.2686 11.3175 88.0744 10.8805 88.3657 10.832C88.4143 10.6863 88.3657 10.4921 88.5114 10.4436C88.5114 10.3465 88.4628 10.3465 88.4628 10.2494C88.4628 10.2008 88.5114 10.1523 88.5599 10.1037C88.5114 9.81238 88.9483 9.32686 88.9483 9.03554C88.9969 8.93844 89.1911 8.50147 89.1911 8.50147C89.3853 8.11304 89.3853 7.87028 89.4339 7.77318C89.4339 7.77318 89.531 7.67607 89.531 7.62752C89.531 7.53041 89.6281 7.48186 89.6281 7.3362L89.7252 7.14199L89.7737 6.89923L89.9194 6.21949H89.8708C89.8708 6.12239 89.9194 6.07384 89.9679 5.97673V5.92818L90.0651 5.44265C90.1136 4.95713 90.2107 4.86002 90.2107 4.32594C90.2107 4.22884 90.2107 3.88897 90.2107 3.79186C90.2107 3.64621 90.1136 3.11213 90.1622 2.91792C90.1622 2.6266 90.0651 2.5295 90.0651 2.48095C90.0165 2.09252 90.0165 2.38384 89.8708 2.04397C89.8708 1.94687 89.8708 1.89831 89.8223 1.80121C89.8223 1.7041 89.7252 1.7041 89.6766 1.65555C89.6766 1.55845 89.6281 1.50989 89.5795 1.41279C89.4824 1.21858 89.4339 1.07292 89.2882 1.02437C89.2882 0.975815 89.0454 0.6845 89.0454 0.635947C88.8027 0.490289 88.8027 0.538842 88.6085 0.393184C88.6085 0.393184 88.6085 0.344631 88.6085 0.296079C88.2201 0.198974 87.9287 0.0533159 87.4918 0.198974C87.4918 0.296079 87.3947 0.344631 87.3461 0.344631C87.2976 0.344631 87.2976 0.247526 87.249 0.296079C87.0062 0.344631 86.9091 0.490289 86.6664 0.587394C86.278 1.02437 86.1323 1.55845 85.841 2.04397C85.8895 2.04397 85.7924 2.14108 85.841 2.23818C85.6468 2.38384 85.6953 2.72371 85.5497 2.91792C85.5497 2.96647 85.5497 2.96647 85.5982 3.01502C85.4526 3.30634 85.404 3.64621 85.3555 3.98608C85.3069 4.32594 85.2098 4.76292 85.2098 5.10278C85.2098 5.49121 85.1127 5.73397 85.1127 6.07384C85.1127 6.3166 85.1127 6.36515 85.0641 6.55936C85.1612 6.65647 85.0641 6.75357 85.0641 6.85068C85.0156 7.43331 85.0641 8.06449 85.0156 8.69568C85.0156 8.74423 85.0156 8.74423 84.967 8.79278C85.0156 9.1812 85.0156 9.52107 84.967 9.95804C85.0641 10.1037 85.0156 10.3465 85.0156 10.4921C85.0156 10.6863 85.1127 10.8805 85.1127 11.0748C85.1127 11.0748 85.0641 11.1233 85.0641 11.1719C85.0641 11.7545 85.2583 12.4342 85.3069 13.1625C85.1127 13.4538 85.1127 13.7937 84.7728 13.9879C84.6757 14.2307 84.4815 14.3763 84.3358 14.5705C84.1416 14.6676 84.0931 15.0075 83.8503 15.1532C83.559 15.3959 82.7336 16.3184 82.588 16.1728C82.4909 16.2213 82.151 16.4641 81.8111 15.93C81.7626 15.93 81.3741 15.0075 81.277 14.7647C81.2285 14.2307 81.1314 13.7937 81.1314 13.2111C81.1314 13.0654 81.0828 12.9683 81.0343 12.8712C81.1314 12.4828 81.1314 12.4828 81.2285 11.9001C81.2285 11.9001 81.277 11.7545 81.277 11.6088L81.3256 11.3661V10.8805L81.0828 10.832C81.0828 10.832 80.7915 10.832 80.5973 10.832C80.4031 10.832 80.5002 10.832 80.3545 10.832H79.9176C79.9176 10.832 79.8205 10.9291 79.5291 10.9291L79.2864 11.2204L78.8009 11.3175L77.8784 11.7059L76.4218 12.6284L75.6935 13.114C75.4507 13.4053 75.0623 13.648 75.0623 13.648L74.5282 14.1821C74.7224 14.0365 74.0427 14.8619 73.6543 15.2503C73.4601 15.6872 72.4405 17.5322 72.6832 17.5808C72.3919 18.7946 72.2948 18.8432 73.4601 19.9599C74.2369 20.7367 75.5478 20.1055 76.0334 19.9599C76.179 19.8628 76.3247 19.7657 76.4218 19.6686C77.5385 19.2316 77.7813 18.9403 78.7038 17.8236V17.9207L78.9465 17.3866C79.4806 16.804 79.3835 16.4155 79.9661 15.7844C79.9661 15.7358 80.0147 15.7358 80.0147 15.6872C80.1118 15.93 80.306 16.367 80.3545 16.6097C80.5002 17.0467 81.277 17.9207 81.4713 18.1149C82.0053 18.5033 82.6851 18.2605 82.9278 18.1634C83.4619 17.9692 84.2387 16.9011 84.3358 16.8525V16.7554C84.3844 16.7069 84.433 16.6583 84.4815 16.5612C84.8214 16.2699 85.1612 15.6387 85.2584 15.6387C85.404 15.5416 85.404 15.4445 85.5982 15.3959C85.5497 15.2988 85.7439 15.1046 85.841 15.1046C85.841 15.1046 85.9381 15.2503 86.0352 15.1532C86.1808 15.3959 86.278 15.7358 86.4236 16.0271C86.9091 16.804 87.2976 17.6779 87.8802 18.2605C88.0258 18.649 88.2686 18.649 88.4143 19.0374C88.5599 19.0374 88.5599 19.2316 88.7056 19.2801C88.7541 19.5229 89.094 19.5715 89.2397 19.7657C89.1911 19.8142 89.2397 19.8142 89.2397 19.8628C89.3368 19.8628 89.2882 19.9599 89.4339 19.9113C89.4339 19.9599 89.3853 19.9599 89.4339 20.0084C89.531 20.0084 89.5795 20.0084 89.6281 20.1055C90.1622 20.6396 90.8904 20.9795 91.6187 21.2708C91.6187 21.2708 91.5702 21.2708 91.5702 21.3193C91.9586 21.465 92.347 21.7078 92.784 21.8534C92.784 21.7563 92.6383 21.7563 92.6869 21.7078C92.784 21.7078 92.9297 21.7563 92.9782 21.8534C93.0268 21.7563 92.9782 21.8534 93.0268 21.8534C93.5608 21.8534 94.0464 22.1447 94.629 22.1447C94.6776 22.2418 94.9203 22.1933 94.8232 22.339C94.9689 22.2418 95.2116 22.4361 95.2602 22.2418C95.4058 22.339 95.4544 22.2904 95.6486 22.2418C95.6486 22.3875 95.7943 22.339 95.8914 22.3875C95.8914 22.339 95.9885 22.339 96.037 22.339C96.2798 22.4361 96.6197 22.339 96.7653 22.4361C96.6197 22.4361 96.5226 22.4361 96.4254 22.5332C96.5711 22.5817 96.7168 22.4846 96.8624 22.5817C96.9595 22.4846 96.7653 22.4361 96.911 22.4361C96.9595 22.5817 96.9595 22.3875 97.0081 22.4361C97.0566 22.4846 97.1052 22.4846 97.1052 22.5332C97.0566 22.5332 96.9595 22.5332 96.911 22.5817C97.0566 22.6788 97.3479 22.6303 97.5422 22.6303C97.5422 22.5817 97.445 22.5332 97.5422 22.5332C97.7364 22.5332 97.882 22.5332 98.0277 22.4846C98.1248 22.5332 98.2704 22.4846 98.319 22.5817C98.4647 22.4846 98.756 22.5332 98.9502 22.5332C98.9016 22.4361 99.0473 22.4846 99.0473 22.4361C99.1444 22.5332 99.4357 22.4846 99.5814 22.4361C99.8727 22.4361 100.261 22.4361 100.504 22.339C100.504 22.2418 100.504 22.2418 100.504 22.1933C100.407 22.2418 100.455 22.2904 100.407 22.1933C100.358 22.1933 100.407 22.2904 100.358 22.2904C100.261 22.339 100.067 22.2904 99.9212 22.2904C99.9212 22.2418 99.9698 22.2418 99.9212 22.1933C99.6785 22.2904 99.5328 22.1933 99.3386 22.339C99.4357 22.1447 99.1929 22.2904 99.1929 22.1447C99.2415 22.1447 99.29 22.1447 99.29 22.1447C99.2415 21.9991 99.0958 22.0476 99.0958 22.1933C99.1444 22.1933 99.1929 22.1933 99.1444 22.1933C99.0473 22.1933 98.9987 22.1447 98.9987 22.0476C99.0958 21.9991 99.2415 22.0476 99.3872 21.9505C99.3386 21.8049 99.4843 21.8049 99.4843 21.7078C99.5328 21.8534 99.727 21.7563 99.8241 21.7563C99.8241 21.902 99.5328 21.8049 99.4843 21.902C99.5814 21.902 99.5328 21.9991 99.6299 21.9991C99.6299 21.9505 99.8241 21.902 99.8241 21.9505C99.7756 21.9991 99.6785 21.9991 99.6785 22.0962C99.7756 22.0962 99.8241 21.9505 99.9212 22.0476C99.9212 21.9991 99.9212 21.902 100.018 21.8534C100.164 21.8534 100.455 21.902 100.552 21.7563C100.504 21.8534 100.65 21.7563 100.65 21.8049C100.552 21.902 100.552 21.9505 100.504 21.9505C100.504 22.0476 100.601 21.9505 100.65 21.9505C100.601 21.8049 100.747 21.7078 100.795 21.7078C100.795 21.7078 100.795 21.8049 100.844 21.8049C100.844 21.8049 100.795 21.6592 100.844 21.7078C100.844 21.8049 101.038 21.7563 101.086 21.7078C101.086 21.7563 101.086 21.8049 101.135 21.8049V21.7563C101.232 21.7563 101.038 21.7563 101.135 21.7078C101.232 21.8049 101.426 21.6592 101.572 21.6107C101.572 21.5621 101.572 21.5136 101.572 21.5136C101.669 21.5136 101.718 21.5136 101.766 21.5136C101.766 21.5621 101.621 21.5136 101.621 21.6592C101.718 21.5621 101.912 21.465 102.058 21.5136C102.058 21.5621 102.009 21.5621 102.009 21.6107C102.058 21.6107 102.106 21.6107 102.106 21.6107C102.106 21.5136 102.058 21.5621 102.106 21.5136C102.592 21.5621 103.077 21.3679 103.708 21.2222C103.708 21.1737 103.708 21.1251 103.708 21.1251C103.708 21.0766 103.805 21.1251 103.805 21.028C103.854 21.028 103.805 21.1251 103.757 21.1251C103.805 21.1737 103.854 21.1737 104 21.1251C104 21.028 104.048 20.9795 104.097 20.9795C104.145 20.9309 104.194 20.9309 104.194 20.8338C104.242 20.8338 104.242 20.8338 104.291 20.8824C104.34 20.9309 104.388 20.9309 104.388 20.9795C104.34 20.9795 104.34 21.028 104.34 21.028C104.291 21.028 104.291 20.9795 104.242 20.9795L104.194 21.028C104.291 21.1251 104.291 21.2222 104.291 21.2708C104.34 21.2222 104.388 21.1737 104.485 21.1737C104.485 21.1251 104.437 21.1251 104.388 21.0766C104.679 20.9795 104.971 20.7853 105.262 20.7367C105.262 20.7367 105.262 20.7853 105.262 20.8338C105.456 20.8338 105.505 20.7367 105.553 20.6396C105.65 20.7853 105.796 20.5911 105.845 20.6882C105.893 20.6396 105.845 20.5425 105.99 20.5425C105.99 20.5911 105.942 20.5911 105.99 20.5911C106.087 20.494 106.136 20.5911 106.33 20.5425C106.282 20.4454 106.427 20.3968 106.33 20.3483C106.185 20.3483 106.379 20.494 106.185 20.494C106.136 20.4454 106.087 20.3968 105.99 20.494C105.99 20.3968 105.942 20.3968 105.893 20.3968C105.845 20.4454 105.942 20.494 105.796 20.5425C105.748 20.494 105.796 20.4454 105.748 20.3968C105.748 20.3968 105.699 20.4454 105.65 20.4454C105.553 20.5425 105.456 20.5425 105.311 20.6396C105.311 20.5911 105.311 20.5425 105.262 20.5425C105.262 20.5425 105.262 20.5425 105.213 20.5425C105.213 20.5911 105.262 20.5911 105.165 20.5911V20.5425C105.116 20.5425 105.116 20.5911 105.068 20.5425C105.019 20.5911 105.019 20.6396 104.971 20.6396C104.971 20.6396 105.019 20.7367 104.971 20.6882C104.971 20.6396 104.922 20.6396 104.874 20.5911V20.5425C104.825 20.5911 104.971 20.6396 104.776 20.6882C104.776 20.6396 104.776 20.5911 104.728 20.5911C104.776 20.6882 104.582 20.6882 104.582 20.6882C104.582 20.6396 104.582 20.5911 104.582 20.5911C104.534 20.5911 104.534 20.5911 104.437 20.5911C104.388 20.5911 104.388 20.5911 104.34 20.494C104.291 20.6396 104.145 20.6396 104 20.6396C104 20.6882 103.903 20.7853 103.854 20.7367C104 20.6882 103.951 20.6882 103.903 20.5911C104 20.4454 104.291 20.494 104.291 20.3968C104.388 20.3483 104.34 20.494 104.388 20.4454C104.485 20.3483 104.679 20.2997 104.776 20.2997C104.825 20.2026 105.019 20.2512 105.019 20.1055C105.116 20.1055 105.116 20.0084 105.213 20.0084C105.213 20.057 105.116 20.1055 105.213 20.1055C105.262 20.0084 105.262 19.9599 105.359 19.9599C105.408 20.0084 105.359 20.057 105.456 20.057C105.505 20.0084 105.505 19.9599 105.553 19.9113C105.602 20.0084 105.65 19.9113 105.699 19.9599C105.699 19.8628 105.748 19.8142 105.845 19.8142C105.942 19.9113 105.796 19.8628 105.845 19.9599C106.039 19.9113 106.185 19.6686 106.379 19.7657C106.379 19.7171 106.33 19.62 106.476 19.62C106.573 19.62 106.573 19.7171 106.621 19.7171C106.719 19.62 106.816 19.7171 106.913 19.62C106.961 19.7171 106.961 19.5715 106.864 19.5715Z" fill="white"/>
<path d="M157.942 20.057C157.942 20.0084 157.942 20.0084 157.942 20.057C157.553 19.0374 156.825 18.2605 156.097 17.6293C155.66 17.2409 154.931 16.9496 154.252 16.804C153.912 16.7068 153.572 16.6583 153.135 16.6583C151.824 16.6583 149.979 17.2409 147.746 19.2801C147.357 19.62 147.017 20.057 146.677 20.4454L144.735 25.2521C144.687 25.7376 144.638 26.2232 144.638 26.7087L145.415 27.4855C145.269 24.3782 146.289 21.7078 148.28 19.8142C150.027 18.212 151.678 17.3866 153.135 17.3866C153.426 17.3866 153.717 17.4351 154.009 17.4837C155.223 17.8236 155.951 18.5033 156.339 19.183C156.145 19.183 155.902 19.2316 155.708 19.3287C154.834 19.6686 154.446 20.6882 154.737 21.465C154.737 21.5136 154.786 21.5621 154.786 21.6107C155.126 22.2904 155.805 22.5332 156.776 22.3389C157.796 22.0962 158.233 20.8338 157.942 20.057Z" fill="white"/>
<path d="M161.68 44.576C158.961 44.4304 156.145 43.5079 153.183 41.9542C152.552 41.6143 151.921 41.2745 151.338 40.886C150.756 40.4976 150.173 40.1092 149.639 39.6237L144.347 44.9159L153.183 53.7525L162.02 44.9159L161.68 44.576Z" fill="white"/>
<path d="M159.592 42.4883C157.553 42.0513 155.417 41.1773 153.183 39.8664C152.892 39.7208 152.649 39.5266 152.358 39.3809C151.872 39.0896 151.387 38.7012 150.95 38.3613L150.416 38.8954C150.901 39.2838 151.436 39.6722 151.921 40.0121C152.358 40.2548 152.746 40.4976 153.183 40.7404C155.708 42.1484 158.136 43.0223 160.466 43.3622L159.592 42.4883Z" fill="white"/>
<path d="M153.183 36.0793L152.115 37.1475C152.455 37.4874 152.844 37.7787 153.183 38.0214C154.446 38.9439 155.805 39.5751 157.213 40.0606L153.183 36.0793Z" fill="white"/>
<path d="M149.202 39.2838C147.26 37.4874 145.658 35.1568 144.638 32.535C144.347 31.7582 144.104 30.9813 143.958 30.253C143.813 29.5247 143.667 28.7965 143.619 28.0682C143.619 27.7768 143.57 27.4855 143.57 27.2428L135.122 35.6909L143.958 44.5275L149.202 39.2838Z" fill="white"/>
<path d="M145.658 32.1466C146.58 34.5742 148.085 36.8076 149.93 38.507L150.464 37.9729C148.668 36.3706 147.211 34.1858 146.337 31.8553C145.901 30.7385 145.609 29.5733 145.464 28.4566L144.638 27.6312C144.638 27.7283 144.638 27.8254 144.638 27.971C144.832 29.3791 145.172 30.7871 145.658 32.1466Z" fill="white"/>
<path d="M150.513 35.3996C150.901 35.9337 151.29 36.3706 151.727 36.8076L152.795 35.7395L148.037 30.9813C148.571 32.2922 149.396 33.7488 150.513 35.3996Z" fill="white"/>
<path d="M153.183 4.81147V15.5416C153.718 15.5416 154.203 15.5901 154.591 15.7358C155.271 15.93 156.194 16.2213 156.873 16.804C157.942 17.6779 158.621 18.6004 159.01 19.62V19.6686C159.301 20.3968 159.155 21.3193 158.718 22.0962C158.33 22.7759 157.699 23.2615 157.019 23.4071C155.562 23.747 154.397 23.2615 153.815 22.0962C153.766 22.0476 153.766 21.9505 153.718 21.8534C153.281 20.6882 153.718 19.5715 154.494 18.8432C154.3 18.7461 154.057 18.6004 153.718 18.5519C153.572 18.5033 153.426 18.5033 153.281 18.5033C153.281 18.5033 153.281 18.5033 153.232 18.5033C153.183 18.5033 153.183 18.5033 153.135 18.5033C153.086 18.5033 152.989 18.5033 152.892 18.5033C152.795 18.5033 152.698 18.5519 152.552 18.5519C152.455 18.6004 152.309 18.6004 152.164 18.649C152.018 18.6975 151.921 18.7461 151.775 18.7946H151.727C151.63 18.8432 151.484 18.8917 151.387 18.9403C151.387 18.9403 151.338 18.9403 151.338 18.9888C151.241 19.0374 151.096 19.1345 150.999 19.183C150.95 19.183 150.95 19.2316 150.901 19.2316C150.804 19.2801 150.707 19.3772 150.562 19.4258C150.513 19.4743 150.464 19.4743 150.416 19.5229C150.319 19.62 150.222 19.6686 150.125 19.7657C150.076 19.8142 150.028 19.8628 149.979 19.9113C149.882 20.0084 149.785 20.057 149.688 20.1541C149.639 20.2026 149.591 20.2512 149.493 20.3483C149.396 20.4454 149.348 20.494 149.251 20.5911C149.202 20.6882 149.105 20.7367 149.056 20.8338C149.008 20.9309 148.911 20.9795 148.862 21.0766C148.814 21.1737 148.717 21.2708 148.668 21.3193C148.619 21.4165 148.522 21.465 148.474 21.5621C148.425 21.6592 148.328 21.7563 148.28 21.8534C148.231 21.9505 148.183 21.9991 148.134 22.0962C148.085 22.1933 147.988 22.339 147.94 22.4846C147.891 22.5817 147.843 22.6303 147.794 22.7274C147.746 22.873 147.648 23.0187 147.6 23.1643C147.551 23.2615 147.503 23.31 147.503 23.4071C147.406 23.6499 147.309 23.8926 147.26 24.1354C147.211 24.2811 147.163 24.4753 147.114 24.6695C147.114 24.718 147.114 24.718 147.114 24.7666C147.066 24.9122 147.066 25.0579 147.017 25.2521C147.017 25.3007 147.017 25.3007 147.017 25.3492C146.969 25.5434 146.969 25.6891 146.969 25.8833C146.92 26.9515 147.066 28.1167 147.454 29.4762L153.135 35.2054L161.971 26.3688C162.02 26.3688 153.183 4.81147 153.183 4.81147ZM153.183 34.3314C151.193 32.2437 149.882 29.4762 149.639 26.8058C149.542 25.9804 149.591 25.3007 149.639 24.718C150.076 21.7078 152.504 21.028 153.183 20.9309V34.3314ZM154.446 25.4949C154.446 24.9608 154.883 24.5724 155.368 24.5724C155.902 24.5724 156.291 25.0093 156.291 25.4949C156.291 26.0289 155.854 26.4174 155.368 26.4174C154.834 26.4174 154.446 26.0289 154.446 25.4949ZM156.631 29.1363C156.291 29.1363 155.999 28.845 155.999 28.5051C155.999 28.1653 156.291 27.8739 156.631 27.8739C156.971 27.8739 157.262 28.1653 157.262 28.5051C157.262 28.845 156.971 29.1363 156.631 29.1363Z" fill="white"/>
<path d="M165.322 29.8646V19.8628H170.322C171.682 19.8628 172.896 20.3483 173.867 21.3194C174.838 22.2904 175.323 23.5042 175.323 24.8637C175.323 26.2232 174.838 27.437 173.867 28.408C172.896 29.3791 171.682 29.8646 170.322 29.8646H168.186V34.1858H165.322V29.8646ZM170.322 27C170.905 27 171.439 26.8058 171.828 26.3688C172.265 25.9319 172.459 25.4463 172.459 24.8637C172.459 24.2811 172.265 23.747 171.828 23.3586C171.391 22.9216 170.905 22.7274 170.322 22.7274H168.186V27.0486L170.322 27Z" fill="white"/>
<path d="M176.44 29.8646V19.8628H181.441C182.8 19.8628 184.014 20.3483 184.985 21.3194C185.956 22.2904 186.442 23.5042 186.442 24.8637C186.442 25.9319 186.151 26.9029 185.519 27.7283C184.888 28.6022 184.16 29.1849 183.189 29.5247L186.442 34.1372H182.946L179.256 28.8936V34.1858H176.392V29.8646H176.44ZM181.441 27C182.024 27 182.558 26.8058 182.946 26.3688C183.383 25.9319 183.577 25.4463 183.577 24.8637C183.577 24.2811 183.383 23.747 182.946 23.3586C182.509 22.9216 182.024 22.7274 181.441 22.7274H179.305V27.0486L181.441 27Z" fill="white"/>
<path d="M199.503 21.9505C200.911 23.3586 201.59 25.0579 201.59 27C201.59 28.9907 200.911 30.6415 199.503 32.0495C198.095 33.4575 196.395 34.1372 194.453 34.1372C192.462 34.1372 190.812 33.4575 189.404 32.0495C187.996 30.6415 187.316 28.9421 187.316 27C187.316 25.0094 187.996 23.3586 189.404 21.9505C190.812 20.5425 192.511 19.8628 194.453 19.8628C196.395 19.8628 198.095 20.5425 199.503 21.9505ZM191.394 23.9897C190.569 24.8151 190.132 25.8347 190.132 27.0486C190.132 28.2138 190.569 29.2334 191.394 30.1074C192.22 30.9328 193.239 31.3697 194.453 31.3697C195.618 31.3697 196.638 30.9328 197.512 30.1074C198.337 29.282 198.774 28.2624 198.774 27.0486C198.774 25.8833 198.337 24.8637 197.512 23.9897C196.687 23.1644 195.667 22.7274 194.453 22.7274C193.239 22.7274 192.22 23.1158 191.394 23.9897Z" fill="white"/>
<path d="M212.369 20.3968C213.243 20.7853 214.02 21.2708 214.651 21.9505L212.66 23.9897C211.786 23.1643 210.815 22.7274 209.602 22.7274C208.436 22.7274 207.417 23.1643 206.543 23.9897C205.717 24.8151 205.28 25.8347 205.28 27.0485C205.28 28.2138 205.717 29.2334 206.543 30.1074C207.368 30.9328 208.388 31.3697 209.602 31.3697C210.767 31.3697 211.786 30.9328 212.66 30.1074L214.7 32.1466C214.02 32.7778 213.292 33.3118 212.418 33.7003C211.544 34.0887 210.621 34.2829 209.65 34.2829C207.659 34.2829 206.009 33.6031 204.601 32.1951C203.193 30.7871 202.513 29.0878 202.513 27.1457C202.513 25.155 203.193 23.5042 204.601 22.0962C206.009 20.6882 207.708 20.0084 209.65 20.0084C210.573 19.8628 211.495 20.0084 212.369 20.3968Z" fill="white"/>
<path d="M226.838 21.9505C228.246 23.3586 228.925 25.0579 228.925 27C228.925 28.9907 228.246 30.6415 226.838 32.0495C225.43 33.4575 223.73 34.1372 221.788 34.1372C219.798 34.1372 218.147 33.4575 216.739 32.0495C215.331 30.6415 214.651 28.9421 214.651 27C214.651 25.0094 215.331 23.3586 216.739 21.9505C218.147 20.5425 219.846 19.8628 221.788 19.8628C223.779 19.8628 225.43 20.5425 226.838 21.9505ZM218.729 23.9897C217.904 24.8151 217.467 25.8347 217.467 27.0486C217.467 28.2138 217.904 29.2334 218.729 30.1074C219.555 30.9328 220.574 31.3697 221.788 31.3697C222.953 31.3697 223.973 30.9328 224.847 30.1074C225.672 29.282 226.109 28.2624 226.109 27.0486C226.109 25.8833 225.672 24.8637 224.847 23.9897C224.022 23.1644 223.002 22.7274 221.788 22.7274C220.623 22.7274 219.603 23.1158 218.729 23.9897Z" fill="white"/>
<path d="M236.791 29.1849L243.783 19.8628V34.1858H240.918V28.4566L236.791 33.943L232.664 28.4566V34.1858H229.799V19.8628L236.791 29.1849Z" fill="white"/>
<path d="M253.687 19.8628V22.7274H247.958V25.592H252.231V28.4566H247.958V31.3212H253.687V34.1858H247.958H245.093V28.4566V25.592V19.8628H253.687Z" fill="white"/>
<path d="M254.95 29.8646V19.8628H259.951C261.31 19.8628 262.524 20.3483 263.495 21.3194C264.466 22.2904 264.951 23.5042 264.951 24.8637C264.951 25.9319 264.66 26.9029 264.029 27.7283C263.398 28.6022 262.67 29.1849 261.698 29.5247L264.951 34.1372H261.456L257.814 28.9421V34.1858H254.95V29.8646ZM259.951 27C260.533 27 261.067 26.8058 261.456 26.3688C261.893 25.9319 262.087 25.4463 262.087 24.8637C262.087 24.2811 261.893 23.747 261.456 23.3586C261.019 22.9216 260.533 22.7274 259.951 22.7274H257.814V27.0486L259.951 27Z" fill="white"/>
<path d="M167.992 43.8477C167.555 43.8477 167.167 43.7506 166.827 43.605C166.487 43.4593 166.147 43.2651 165.904 42.9738C165.661 42.731 165.419 42.3912 165.273 42.0513C165.127 41.7114 165.03 41.323 165.03 40.886C165.03 40.4976 165.127 40.1092 165.273 39.7208C165.419 39.3809 165.613 39.041 165.904 38.7983C166.147 38.507 166.487 38.3128 166.827 38.1671C167.215 38.0214 167.604 37.9243 168.041 37.9243C168.332 37.9243 168.575 37.9243 168.769 37.9729C168.963 38.0214 169.206 38.07 169.351 38.1671C169.546 38.2642 169.691 38.3128 169.837 38.4584C169.983 38.5555 170.128 38.7012 170.274 38.7983L169.449 39.7208C169.206 39.5266 169.012 39.3809 168.769 39.2353C168.526 39.1381 168.283 39.041 167.992 39.041C167.749 39.041 167.506 39.0896 167.312 39.1867C167.118 39.2838 166.924 39.4295 166.778 39.5751C166.632 39.7208 166.535 39.915 166.438 40.1578C166.341 40.352 166.293 40.5947 166.293 40.8375C166.293 41.0802 166.341 41.323 166.438 41.5172C166.535 41.76 166.632 41.9056 166.778 42.0999C166.924 42.2455 167.118 42.3912 167.312 42.4883C167.506 42.5854 167.749 42.6339 167.992 42.6339C168.332 42.6339 168.575 42.5854 168.817 42.4397C169.06 42.3426 169.254 42.1484 169.497 41.9542L170.322 42.7796C170.177 42.9252 170.031 43.0709 169.886 43.2166C169.74 43.3622 169.546 43.4593 169.351 43.5564C169.157 43.6535 168.963 43.7021 168.72 43.7506C168.526 43.7992 168.235 43.8477 167.992 43.8477Z" fill="white"/>
<path d="M173.624 43.8477C173.187 43.8477 172.75 43.7506 172.41 43.605C172.022 43.4593 171.731 43.2166 171.439 42.9738C171.148 42.731 170.954 42.3912 170.808 42.0513C170.662 41.7114 170.565 41.323 170.565 40.886C170.565 40.4976 170.662 40.1092 170.808 39.7208C170.954 39.3809 171.196 39.041 171.439 38.7983C171.682 38.5555 172.022 38.3128 172.41 38.1671C172.799 38.0214 173.187 37.9243 173.624 37.9243C174.061 37.9243 174.498 38.0214 174.838 38.1671C175.226 38.3128 175.518 38.5555 175.809 38.7983C176.1 39.041 176.294 39.3809 176.44 39.7208C176.586 40.0606 176.683 40.4491 176.683 40.886C176.683 41.2745 176.586 41.6629 176.44 42.0513C176.294 42.3912 176.052 42.731 175.809 42.9738C175.518 43.2651 175.226 43.4593 174.838 43.605C174.498 43.7506 174.061 43.8477 173.624 43.8477ZM173.673 42.6825C173.915 42.6825 174.158 42.6339 174.352 42.5368C174.547 42.4397 174.741 42.2941 174.886 42.1484C175.032 42.0028 175.178 41.8085 175.226 41.5658C175.275 41.323 175.372 41.1288 175.372 40.886C175.372 40.6433 175.323 40.4005 175.226 40.2063C175.129 39.9635 175.032 39.8179 174.886 39.6237C174.741 39.478 174.547 39.3324 174.352 39.2353C174.158 39.1381 173.915 39.0896 173.673 39.0896C173.43 39.0896 173.187 39.1381 172.993 39.2353C172.799 39.3324 172.604 39.478 172.459 39.6237C172.313 39.7693 172.167 39.9635 172.119 40.2063C172.07 40.4491 171.973 40.6433 171.973 40.886C171.973 41.1288 172.022 41.3716 172.119 41.5658C172.216 41.8085 172.313 41.9542 172.459 42.1484C172.604 42.2941 172.799 42.4397 172.993 42.5368C173.139 42.6339 173.381 42.6825 173.673 42.6825Z" fill="white"/>
<path d="M179.353 43.7992C178.916 43.7992 178.479 43.7021 178.042 43.5564C177.605 43.4108 177.217 43.168 176.877 42.8767L177.605 42.0027C177.848 42.197 178.139 42.3912 178.431 42.4883C178.722 42.6339 179.013 42.6825 179.353 42.6825C179.596 42.6825 179.839 42.6339 179.984 42.5368C180.13 42.4397 180.179 42.2941 180.179 42.1484C180.179 42.0513 180.179 42.0027 180.13 41.9542C180.082 41.9056 180.033 41.8085 179.936 41.76C179.839 41.7114 179.742 41.6629 179.596 41.6143C179.45 41.5658 179.256 41.5172 179.013 41.4201C178.722 41.3716 178.479 41.2745 178.237 41.1774C177.994 41.0803 177.8 40.9831 177.654 40.8375C177.508 40.6918 177.363 40.5462 177.266 40.352C177.168 40.1577 177.12 39.915 177.12 39.6237C177.12 39.3809 177.168 39.1381 177.266 38.8954C177.363 38.7012 177.508 38.507 177.654 38.3613C177.848 38.2156 178.042 38.07 178.285 38.0214C178.528 37.9243 178.819 37.8758 179.11 37.8758C179.547 37.8758 179.936 37.9243 180.276 38.07C180.616 38.2156 180.955 38.3613 181.247 38.6041L180.567 39.5751C180.324 39.3809 180.082 39.2838 179.79 39.1381C179.547 39.041 179.305 38.9925 179.062 38.9925C178.819 38.9925 178.625 39.041 178.528 39.1381C178.382 39.2352 178.334 39.3324 178.334 39.478C178.334 39.5751 178.334 39.6722 178.382 39.7208C178.431 39.7693 178.479 39.8664 178.576 39.915C178.674 39.9635 178.819 40.0121 178.965 40.0606C179.111 40.1092 179.353 40.1578 179.596 40.2549C179.887 40.352 180.13 40.4005 180.373 40.4976C180.616 40.5947 180.81 40.6918 180.956 40.8375C181.101 40.9831 181.247 41.1288 181.295 41.323C181.392 41.5172 181.392 41.7114 181.392 41.9542C181.392 42.2455 181.344 42.4883 181.247 42.731C181.15 42.9738 181.004 43.1195 180.81 43.2651C180.616 43.4108 180.421 43.5079 180.13 43.605C179.984 43.7506 179.693 43.7992 179.353 43.7992Z" fill="white"/>
<path d="M183.432 39.1381H181.684V37.9729H186.442V39.1381H184.694V43.7021H183.432V39.1381Z" fill="white"/>
<path d="M188.87 37.9243H190.035L192.511 43.7021H191.2L190.666 42.3912H188.238L187.704 43.7021H186.393L188.87 37.9243ZM190.18 41.323L189.404 39.478L188.627 41.323H190.18Z" fill="white"/>
<path d="M165.273 44.6731H167.895C168.623 44.6731 169.157 44.8674 169.546 45.2558C169.886 45.5956 170.031 46.0326 170.031 46.5667C170.031 47.0522 169.934 47.3921 169.691 47.6834C169.449 47.9747 169.157 48.1689 168.817 48.3146L170.225 50.3538H168.769L167.555 48.5088H166.584V50.3538H165.322L165.273 44.6731ZM167.846 47.4406C168.138 47.4406 168.38 47.3435 168.575 47.1979C168.72 47.0522 168.817 46.858 168.817 46.6152C168.817 46.3239 168.72 46.1297 168.575 45.9841C168.38 45.8384 168.138 45.7899 167.846 45.7899H166.535V47.4406H167.846Z" fill="white"/>
<path d="M170.759 44.6731H172.022V50.4023H170.759V44.6731Z" fill="white"/>
<path d="M175.663 50.4994C175.226 50.4994 174.838 50.4023 174.498 50.2567C174.158 50.111 173.818 49.9168 173.575 49.6255C173.333 49.3342 173.09 49.0429 172.944 48.703C172.799 48.3631 172.702 47.9747 172.702 47.5377C172.702 47.1493 172.799 46.7609 172.944 46.3725C173.09 46.0326 173.284 45.6927 173.575 45.45C173.818 45.1587 174.158 44.9645 174.498 44.8188C174.886 44.6731 175.275 44.576 175.712 44.576C176.003 44.576 176.246 44.576 176.44 44.6246C176.634 44.6731 176.877 44.7217 177.023 44.8188C177.217 44.9159 177.363 44.9645 177.508 45.1101C177.654 45.2072 177.8 45.3529 177.945 45.45L177.12 46.3725C176.877 46.1783 176.683 46.0326 176.44 45.887C176.197 45.7898 175.955 45.6927 175.663 45.6927C175.42 45.6927 175.178 45.7413 174.984 45.8384C174.789 45.9355 174.595 46.0812 174.449 46.2268C174.304 46.3725 174.207 46.5667 174.11 46.8095C174.012 47.0037 173.964 47.2464 173.964 47.4892C173.964 47.732 174.012 47.9747 174.11 48.1689C174.207 48.4117 174.304 48.5573 174.449 48.7516C174.595 48.8972 174.789 49.0429 174.984 49.14C175.178 49.2371 175.42 49.2856 175.663 49.2856C176.003 49.2856 176.246 49.2371 176.489 49.0914C176.731 48.9943 176.926 48.8001 177.168 48.6059L177.994 49.4313C177.848 49.577 177.702 49.7226 177.557 49.8683C177.411 50.0139 177.217 50.111 177.023 50.2081C176.829 50.3052 176.634 50.3538 176.392 50.4023C176.197 50.4509 175.955 50.4994 175.663 50.4994Z" fill="white"/>
<path d="M180.519 44.6246H181.684L184.16 50.4023H182.849L182.315 49.0914H179.887L179.353 50.4023H178.042L180.519 44.6246ZM181.829 47.9747L181.053 46.1297L180.276 47.9747H181.829Z" fill="white"/>
<path d="M194.696 38.0214H194.987V50.4509H194.696V38.0214Z" fill="white"/>
<path d="M202.222 42.9738V43.5564H198.629V38.3613H202.173V38.9439H199.308V40.6433H201.785V41.1773H199.308V42.9738H202.222Z" fill="white"/>
<path d="M203.775 38.3613L205.377 40.4976L206.98 38.3613H207.756L205.766 40.9831L207.708 43.5564H206.931L205.377 41.4687L203.824 43.5564H203.047L204.989 40.9831L202.998 38.3613H203.775Z" fill="white"/>
<path d="M208.873 43.5564V38.3613H211.107C211.349 38.3613 211.544 38.4099 211.738 38.507C211.932 38.6041 212.078 38.7497 212.223 38.8954C212.369 39.041 212.466 39.2352 212.563 39.4295C212.66 39.6237 212.66 39.8179 212.66 40.0121C212.66 40.3034 212.612 40.5462 212.466 40.8375C212.32 41.0802 212.175 41.323 211.932 41.4687C211.689 41.6143 211.447 41.7114 211.107 41.7114H209.504V43.5564H208.873ZM209.553 41.0802H211.107C211.301 41.0802 211.447 41.0317 211.592 40.9346C211.738 40.8375 211.835 40.6918 211.932 40.5462C212.029 40.4005 212.029 40.2063 212.029 40.0121C212.029 39.8179 211.981 39.6237 211.883 39.478C211.786 39.3324 211.689 39.1867 211.544 39.0896C211.398 38.9925 211.252 38.9439 211.058 38.9439H209.553V41.0802Z" fill="white"/>
<path d="M216.108 43.605C215.719 43.605 215.379 43.5079 215.088 43.3622C214.797 43.2166 214.505 43.0223 214.311 42.7796C214.068 42.5368 213.923 42.2455 213.777 41.9542C213.68 41.6629 213.583 41.323 213.583 40.9831C213.583 40.6433 213.631 40.3034 213.777 40.0121C213.923 39.7208 214.068 39.4295 214.311 39.1867C214.554 38.9439 214.797 38.7497 215.088 38.6041C215.379 38.4584 215.719 38.4099 216.059 38.4099C216.447 38.4099 216.787 38.507 217.079 38.6526C217.37 38.7983 217.661 38.9925 217.855 39.2838C218.098 39.5266 218.244 39.8179 218.341 40.1092C218.438 40.4005 218.535 40.7404 218.535 41.0802C218.535 41.4201 218.487 41.76 218.341 42.0513C218.195 42.3426 218.05 42.6339 217.807 42.8767C217.564 43.1195 217.321 43.3137 217.03 43.4593C216.836 43.5079 216.496 43.605 216.108 43.605ZM214.311 40.9346C214.311 41.1774 214.36 41.4687 214.457 41.7114C214.554 41.9542 214.651 42.197 214.845 42.3426C214.991 42.5368 215.185 42.6825 215.428 42.7796C215.671 42.8767 215.913 42.9252 216.156 42.9252C216.447 42.9252 216.69 42.8767 216.933 42.731C217.176 42.5854 217.37 42.4397 217.516 42.2455C217.661 42.0513 217.807 41.8085 217.855 41.5658C217.904 41.323 218.001 41.0802 218.001 40.8375C218.001 40.5947 217.953 40.3034 217.855 40.0606C217.758 39.8179 217.661 39.5751 217.467 39.4295C217.321 39.2352 217.127 39.0896 216.884 38.9925C216.642 38.8954 216.399 38.8468 216.156 38.8468C215.865 38.8468 215.622 38.8954 215.379 39.041C215.137 39.1381 214.942 39.3324 214.797 39.5266C214.651 39.7208 214.505 39.9635 214.457 40.1577C214.36 40.4491 214.311 40.6918 214.311 40.9346Z" fill="white"/>
<path d="M220.04 43.5564V38.3613H222.322C222.565 38.3613 222.759 38.4099 222.953 38.507C223.148 38.6041 223.293 38.7497 223.439 38.8954C223.585 39.041 223.682 39.2352 223.779 39.4295C223.876 39.6237 223.876 39.8179 223.876 40.0121C223.876 40.2548 223.827 40.4976 223.73 40.6918C223.633 40.886 223.488 41.0802 223.342 41.2259C223.196 41.3716 223.002 41.4687 222.759 41.5172L224.022 43.5079H223.342L222.128 41.6629H220.72V43.5079H220.04V43.5564ZM220.72 41.0802H222.322C222.517 41.0802 222.662 41.0317 222.808 40.9346C222.953 40.8375 223.051 40.6918 223.148 40.5462C223.245 40.4005 223.245 40.2063 223.245 40.0121C223.245 39.8179 223.196 39.6237 223.099 39.478C223.002 39.3324 222.905 39.1867 222.759 39.0896C222.614 38.9925 222.468 38.9439 222.274 38.9439H220.72V41.0802Z" fill="white"/>
<path d="M229.168 38.9439H227.323V43.5564H226.643V38.9439H224.798V38.3613H229.12L229.168 38.9439Z" fill="white"/>
<path d="M231.547 38.3613H232.13L234.315 43.5564H233.538L232.955 42.0513H230.673L230.091 43.5564H229.362L231.547 38.3613ZM232.761 41.5172L231.839 39.1381L230.916 41.5172H232.761Z" fill="white"/>
<path d="M234.897 40.9346C234.897 40.5947 234.946 40.3034 235.043 40.0121C235.14 39.7208 235.334 39.4295 235.529 39.1867C235.723 38.9439 236.014 38.7497 236.305 38.6041C236.597 38.4584 236.985 38.3613 237.374 38.3613C237.859 38.3613 238.248 38.4584 238.587 38.7012C238.927 38.9439 239.17 39.1867 239.364 39.5266L238.83 39.8664C238.733 39.6237 238.587 39.478 238.442 39.3323C238.296 39.1867 238.102 39.0896 237.908 39.041C237.713 38.9925 237.519 38.9439 237.374 38.9439C237.082 38.9439 236.84 38.9925 236.597 39.1381C236.354 39.2838 236.16 39.4295 236.014 39.6237C235.868 39.8179 235.723 40.0606 235.674 40.2548C235.577 40.4976 235.577 40.7404 235.577 40.9831C235.577 41.2745 235.626 41.5172 235.723 41.76C235.82 42.0027 235.966 42.2455 236.111 42.4397C236.257 42.6339 236.451 42.7796 236.694 42.8767C236.937 42.9738 237.179 43.0223 237.422 43.0223C237.616 43.0223 237.811 42.9738 238.005 42.9252C238.199 42.8767 238.393 42.7796 238.539 42.6339C238.685 42.4883 238.83 42.3426 238.927 42.0998L239.51 42.3912C239.413 42.6339 239.219 42.8767 239.024 43.0709C238.782 43.2651 238.539 43.4108 238.248 43.4593C237.956 43.5564 237.665 43.605 237.422 43.605C237.082 43.605 236.742 43.5079 236.403 43.3622C236.111 43.2166 235.82 43.0223 235.626 42.731C235.383 42.4883 235.237 42.197 235.092 41.8571C234.995 41.5658 234.897 41.2259 234.897 40.9346Z" fill="white"/>
<path d="M240.821 43.5564V38.3613H241.501V43.5564H240.821Z" fill="white"/>
<path d="M245.385 43.605C244.996 43.605 244.656 43.5079 244.365 43.3622C244.074 43.2166 243.783 43.0223 243.588 42.7796C243.346 42.5368 243.2 42.2455 243.054 41.9542C242.957 41.6629 242.86 41.323 242.86 40.9831C242.86 40.6433 242.909 40.3034 243.054 40.0121C243.2 39.7208 243.346 39.4295 243.588 39.1867C243.831 38.9439 244.074 38.7497 244.365 38.6041C244.656 38.4584 244.996 38.4099 245.336 38.4099C245.725 38.4099 246.065 38.507 246.356 38.6526C246.647 38.7983 246.938 38.9925 247.133 39.2838C247.375 39.5266 247.521 39.8179 247.618 40.1092C247.715 40.4005 247.812 40.7404 247.812 41.0802C247.812 41.4201 247.764 41.76 247.618 42.0513C247.473 42.3426 247.327 42.6339 247.084 42.8767C246.841 43.1195 246.599 43.3137 246.307 43.4593C246.065 43.5079 245.725 43.605 245.385 43.605ZM243.588 40.9346C243.588 41.1774 243.637 41.4687 243.734 41.7114C243.831 41.9542 243.928 42.197 244.122 42.3426C244.268 42.5368 244.462 42.6825 244.705 42.7796C244.948 42.8767 245.191 42.9252 245.433 42.9252C245.725 42.9252 245.967 42.8767 246.21 42.731C246.453 42.5854 246.647 42.4397 246.793 42.2455C246.938 42.0513 247.084 41.8085 247.133 41.5658C247.181 41.323 247.278 41.0802 247.278 40.8375C247.278 40.5947 247.23 40.3034 247.133 40.0606C247.036 39.8179 246.938 39.5751 246.744 39.4295C246.599 39.2352 246.404 39.0896 246.162 38.9925C245.919 38.8954 245.676 38.8468 245.433 38.8468C245.142 38.8468 244.899 38.8954 244.656 39.041C244.414 39.1381 244.22 39.3324 244.074 39.5266C243.928 39.7208 243.783 39.9635 243.734 40.1577C243.588 40.4491 243.588 40.6918 243.588 40.9346Z" fill="white"/>
<path d="M249.949 39.5751V43.5564H249.269V38.3613H249.852L253.105 42.4397V38.3613H253.784V43.5564H253.153L249.949 39.5751Z" fill="white"/>
<path d="M259.125 42.9738V43.5564H255.532V38.3613H259.077V38.9439H256.212V40.6433H258.688V41.1773H256.212V42.9738C256.163 42.9738 259.125 42.9738 259.125 42.9738Z" fill="white"/>
<path d="M263.592 39.4295C263.543 39.3809 263.446 39.2838 263.349 39.2352C263.252 39.1867 263.155 39.1381 263.009 39.041C262.864 38.9925 262.767 38.9439 262.621 38.8954C262.475 38.8468 262.33 38.8468 262.184 38.8468C261.796 38.8468 261.456 38.9439 261.261 39.0896C261.067 39.2352 260.97 39.4295 260.97 39.7208C260.97 39.915 261.019 40.0606 261.116 40.1577C261.213 40.2548 261.359 40.352 261.553 40.4005C261.747 40.4491 262.038 40.5462 262.33 40.5947C262.718 40.6918 263.009 40.7889 263.301 40.886C263.592 40.9831 263.786 41.1288 263.932 41.323C264.078 41.5172 264.126 41.76 264.126 42.0513C264.126 42.2941 264.078 42.5368 263.98 42.6825C263.883 42.8281 263.738 43.0223 263.592 43.1194C263.398 43.2166 263.204 43.3137 262.961 43.3622C262.718 43.4108 262.475 43.4593 262.184 43.4593C261.893 43.4593 261.65 43.4108 261.407 43.3622C261.164 43.3137 260.922 43.2166 260.679 43.1194C260.436 43.0223 260.242 42.8767 260.048 42.731L260.388 42.1969C260.485 42.2941 260.582 42.3426 260.679 42.4397C260.825 42.5368 260.97 42.5854 261.116 42.6825C261.261 42.731 261.456 42.8281 261.65 42.8281C261.844 42.8767 262.038 42.8767 262.233 42.8767C262.621 42.8767 262.912 42.8281 263.107 42.6825C263.301 42.5368 263.398 42.3426 263.398 42.0998C263.398 41.9056 263.349 41.76 263.204 41.6143C263.106 41.5172 262.912 41.4201 262.67 41.323C262.427 41.2259 262.184 41.1773 261.844 41.0802C261.504 40.9831 261.164 40.886 260.922 40.7889C260.679 40.6918 260.485 40.5462 260.388 40.4005C260.242 40.2063 260.193 40.0121 260.193 39.7208C260.193 39.3809 260.29 39.0896 260.436 38.8954C260.582 38.6526 260.825 38.507 261.116 38.3613C261.407 38.2156 261.747 38.1671 262.087 38.1671C262.33 38.1671 262.572 38.2156 262.767 38.2642C262.961 38.3127 263.155 38.3613 263.349 38.4584C263.543 38.5555 263.689 38.6526 263.835 38.7497L263.592 39.4295Z" fill="white"/>
<path d="M198.629 50.548V45.3529H199.308V50.548H198.629Z" fill="white"/>
<path d="M201.542 46.5667V50.548H200.862V45.3529H201.445L204.698 49.4313V45.3529H205.377V50.548H204.746L201.542 46.5667Z" fill="white"/>
<path d="M207.077 45.3529L208.825 49.7226L210.573 45.3529H211.301L209.165 50.548H208.533L206.397 45.3529H207.077Z" fill="white"/>
<path d="M215.913 49.9654V50.548H212.32V45.3529H215.865V45.9355H213V47.6348H215.476V48.1689H213V49.9654H215.913Z" fill="white"/>
<path d="M217.176 50.548V45.3529H219.458C219.7 45.3529 219.895 45.4014 220.089 45.4985C220.283 45.5956 220.429 45.7413 220.574 45.887C220.72 46.0326 220.817 46.2268 220.914 46.421C221.011 46.6152 221.011 46.8095 221.011 47.0037C221.011 47.2464 220.963 47.4892 220.866 47.6834C220.769 47.8776 220.623 48.0718 220.477 48.2175C220.332 48.3631 220.137 48.4602 219.895 48.5088L221.157 50.4994H220.429L219.215 48.6545H217.807V50.4994H217.176V50.548ZM217.807 48.1204H219.409C219.603 48.1204 219.749 48.0718 219.895 47.9747C220.04 47.8776 220.137 47.732 220.235 47.5863C220.332 47.4406 220.332 47.2464 220.332 47.0522C220.332 46.858 220.283 46.6638 220.186 46.5181C220.089 46.3725 219.992 46.2268 219.846 46.1297C219.7 46.0326 219.555 45.9841 219.361 45.9841H217.807C217.807 45.9355 217.807 48.1204 217.807 48.1204Z" fill="white"/>
<path d="M225.478 46.4696C225.43 46.421 225.333 46.3239 225.235 46.2754C225.138 46.2268 225.041 46.1783 224.896 46.0812C224.75 46.0326 224.653 45.9841 224.507 45.9355C224.362 45.887 224.216 45.887 224.07 45.887C223.682 45.887 223.342 45.9841 223.148 46.1297C222.954 46.2754 222.856 46.4696 222.856 46.7609C222.856 46.9551 222.905 47.1008 223.002 47.1979C223.099 47.295 223.245 47.3921 223.439 47.4406C223.633 47.4892 223.925 47.5863 224.216 47.6348C224.604 47.7319 224.896 47.8291 225.187 47.9262C225.478 48.0233 225.672 48.1689 225.818 48.3631C225.964 48.5573 226.012 48.8001 226.012 49.0914C226.012 49.3342 225.964 49.5769 225.867 49.7226C225.77 49.8683 225.624 50.0625 225.478 50.1596C225.284 50.2567 225.09 50.3538 224.847 50.4023C224.604 50.4509 224.362 50.4994 224.07 50.4994C223.779 50.4994 223.536 50.4509 223.293 50.4023C223.051 50.3538 222.808 50.2567 222.565 50.1596C222.322 50.0625 222.128 49.9168 221.934 49.7712L222.274 49.2371C222.371 49.3342 222.468 49.3827 222.565 49.4798C222.711 49.5769 222.856 49.6255 223.002 49.7226C223.148 49.7712 223.342 49.8683 223.536 49.8683C223.73 49.9168 223.925 49.9168 224.119 49.9168C224.507 49.9168 224.798 49.8683 224.993 49.7226C225.187 49.5769 225.284 49.3827 225.284 49.14C225.284 48.9458 225.235 48.8001 225.09 48.6545C224.993 48.5573 224.798 48.4602 224.556 48.3631C224.313 48.266 224.07 48.2175 223.73 48.1204C223.39 48.0233 223.051 47.9262 222.808 47.8291C222.565 47.7319 222.371 47.5863 222.274 47.4406C222.128 47.2464 222.08 47.0522 222.08 46.7609C222.08 46.421 222.177 46.1297 222.322 45.9355C222.468 45.6927 222.711 45.5471 223.002 45.4014C223.293 45.2558 223.633 45.2072 223.973 45.2072C224.216 45.2072 224.459 45.2558 224.653 45.3043C224.847 45.3529 225.041 45.4014 225.235 45.4985C225.43 45.5956 225.575 45.6927 225.721 45.7898L225.478 46.4696Z" fill="white"/>
<path d="M227.226 50.548V45.3529H227.906V50.548H227.226Z" fill="white"/>
<path d="M231.596 50.5966C231.207 50.5966 230.868 50.4995 230.576 50.3538C230.285 50.2081 229.994 50.0139 229.799 49.7712C229.557 49.5284 229.411 49.2371 229.265 48.9458C229.168 48.6545 229.071 48.3146 229.071 47.9747C229.071 47.6348 229.12 47.295 229.265 47.0037C229.411 46.7124 229.557 46.421 229.799 46.1783C230.042 45.9355 230.285 45.7413 230.576 45.5956C230.868 45.45 231.207 45.4014 231.547 45.4014C231.936 45.4014 232.276 45.4985 232.567 45.6442C232.858 45.7898 233.15 45.9841 233.344 46.2754C233.587 46.5181 233.732 46.8095 233.829 47.1008C233.926 47.3921 234.023 47.732 234.023 48.0718C234.023 48.4117 233.975 48.7516 233.829 49.0429C233.684 49.3342 233.538 49.6255 233.295 49.8683C233.052 50.111 232.81 50.3052 232.518 50.4509C232.324 50.4995 231.984 50.5966 231.596 50.5966ZM229.799 47.9747C229.799 48.2175 229.848 48.5088 229.945 48.7516C230.042 48.9943 230.139 49.2371 230.333 49.3827C230.479 49.577 230.673 49.7226 230.916 49.8197C231.159 49.9168 231.402 49.9654 231.644 49.9654C231.936 49.9654 232.178 49.9168 232.421 49.7712C232.664 49.6255 232.858 49.4798 233.004 49.2856C233.15 49.0914 233.295 48.8487 233.344 48.6059C233.392 48.3631 233.489 48.1204 233.489 47.8776C233.489 47.6348 233.441 47.3435 233.344 47.1008C233.247 46.858 233.15 46.6152 232.955 46.4696C232.81 46.2754 232.615 46.1297 232.373 46.0326C232.13 45.9355 231.887 45.887 231.644 45.887C231.353 45.887 231.11 45.9355 230.868 46.0812C230.625 46.1783 230.431 46.3725 230.285 46.5667C230.139 46.7609 229.994 47.0037 229.945 47.1979C229.848 47.4406 229.799 47.6834 229.799 47.9747ZM231.887 44.7217L231.45 44.576L231.887 43.8477H232.567L231.887 44.7217Z" fill="white"/>
<path d="M236.014 46.5667V50.548H235.334V45.3529H235.917L239.17 49.4313V45.3529H239.85V50.548H239.219L236.014 46.5667Z" fill="white"/>
</svg>
